<?xml version="1.0" encoding="utf-8"?>
<!-- Generator: Adobe Adobe Illustrator 24.2.0, SVG Export Plug-In . SVG Version: 6.00 Build 0)  -->
<svg version="1.1" id="Layer_1" xmlns="http://www.w3.org/2000/svg" xmlns:xlink="http://www.w3.org/1999/xlink" x="0px" y="0px"
	 width="595.28px" height="841.89px" viewBox="0 0 595.28 841.89" style="enable-background:new 0 0 595.28 841.89;"
	 xml:space="preserve">
<style type="text/css">
	.st0{fill:#31AACF;stroke:#31AACF;stroke-miterlimit:10;}
</style>
<path class="st0" d="M253.61,264.87c0,0,10.67-10.01,8.02-32.77c0,0-15.57-14.38-9.93-36.5c0,0,8.24-26.25,33.79-27.24
	c0,0,29.34-1.9,38.35,28.77c0,0,4.39,18.44-9.96,34.35c0,0-4.08,13.8,7.51,33.54l112.37,0.64l0.31,107.61c0,0,18.9,12.76,33.69,7.35
	c0,0,14.87-14.7,36.28-9.24c0,0,30.42,9.06,26.47,42.21c0,0-4.25,25.52-31.62,30.53c0,0-17.56,3.02-31.08-10.5
	c0,0-17.2-4.79-32.77,7.26l-0.82,109.35l-113.59,0.5c0,0-9.23,13.17-6.84,31.54c0,0,16.2,14.86,9.1,37.97
	c0,0-9.16,27.92-40.33,25.43c0,0-28.39-4.35-31.59-30.5c0,0-2.62-19.69,10.25-32.57c0,0,4.7-15.02-6.76-32.26l-104.82-0.04
	l-0.55-111.23c0,0-11.28-7.37-28.73-4.99c0,0-18.15,17.25-40.68,7.12c0,0-18.92-6.73-22.2-28.21c0,0-2.04-32.08,23.05-39.96
	c0,0,23.71-8.27,40.25,8.26c0,0,12.35,4.16,28.68-4.5l-0.48-111.26L253.61,264.87z"/>
</svg>
