<?xml version="1.0" encoding="utf-8"?>
<!-- Generator: Adobe Adobe Illustrator 24.2.0, SVG Export Plug-In . SVG Version: 6.00 Build 0)  -->
<svg version="1.1" xmlns="http://www.w3.org/2000/svg" xmlns:xlink="http://www.w3.org/1999/xlink" x="0px" y="0px"
	 width="595.28px" height="841.89px" viewBox="0 0 595.28 841.89" style="enable-background:new 0 0 595.28 841.89;"
	 xml:space="preserve">
<style type="text/css">
	.st0{fill:#3BA7C6;stroke:#3BA7C6;stroke-miterlimit:10;}
</style>
<g id="Layer_1">
</g>
<g id="Layer_2">
	<path class="st0" d="M171.99,400.71c0,0,10.09-89.11,106.48-105.67c0,0,2.76,6.52,1.07,13.28c0,0-16.7,20.44-1.61,35.54
		c0,0,16.82,18.14,38.09,1.34c0,0,16.38-18.75-0.4-35.54c0,0-1.29-9.43,0.94-14.08c0,0,89.94,5.74,106.64,108.27
		c0,0-7.84,4.27-13.84,1.77c0,0-12.76-11.5-27.2-6.42c0,0-23.82,9.5-14.91,33.68c0,0,13.74,29.22,42.02,8.95
		c0,0,6.56-1.64,12.28,0.92c0,0-10.06,87.08-105.18,103.6c0,0-2.82-5.88-0.79-13.72c0,0,16.03-19.51,0.8-34.74
		c0,0-20.27-22.21-41.75,3.77c0,0-9.56,21.67,5.09,31.1c0,0,1.98,8.3-1.39,13.61c0,0-90.75-8.95-106.34-107.02
		c0,0,9.38-3.5,13.96-1.32c0,0,21.49,19.69,39.75-4.42c0,0,10.98-19.67-3.58-31.36c0,0-15.77-16.4-36.43-0.19
		C185.69,402.04,177.32,404.49,171.99,400.71z"/>
</g>
</svg>
