<svg xmlns="http://www.w3.org/2000/svg" xmlns:xlink="http://www.w3.org/1999/xlink" viewBox="0 0 390 414.21">
  <defs>
    <style>
      .a31ad1f2-dc18-4897-ac43-8dd1de51db88 {
        fill: url(#ab462e5d-0705-4c49-ab0d-fa20d10b5049);
      }

      .bd2f95e5-1080-4712-8fc8-5d5664a3d9a4 {
        fill-rule: evenodd;
        fill: url(#b3dc8c8e-f37e-40d4-8f59-da172f3b6257);
      }
    </style>
    <linearGradient id="ab462e5d-0705-4c49-ab0d-fa20d10b5049" data-name="New swatch 12" x1="-11.32" y1="393.21" x2="385.62" y2="393.21" gradientUnits="userSpaceOnUse">
      <stop offset="0" stop-color="#fedf1a"/>
      <stop offset="0.15" stop-color="#fba658"/>
      <stop offset="0.23" stop-color="#f6789c"/>
      <stop offset="0.39" stop-color="#9c88db"/>
      <stop offset="0.56" stop-color="#5caee4"/>
      <stop offset="0.65" stop-color="#19d2e3"/>
      <stop offset="0.75" stop-color="#18ddd4"/>
      <stop offset="0.84" stop-color="#2de4ba"/>
      <stop offset="0.95" stop-color="#62fc6c"/>
      <stop offset="1" stop-color="#62fc6c"/>
    </linearGradient>
    <linearGradient id="b3dc8c8e-f37e-40d4-8f59-da172f3b6257" x1="128.52" y1="283.75" x2="298.75" y2="283.75" gradientTransform="matrix(0, -1.38, 1.39, 0, -182.02, 411.92)" xlink:href="#ab462e5d-0705-4c49-ab0d-fa20d10b5049"/>
  </defs>
  <g id="f0cc5fec-6bf6-4f1e-be5c-65c61353961f" data-name="Layer 2">
    <g id="a730b7c6-fed6-42c0-bfa3-f7d09d983104" data-name="Layer 2">
      <g>
        <rect class="a31ad1f2-dc18-4897-ac43-8dd1de51db88" y="372.21" width="390" height="42" rx="21"/>
        <path class="bd2f95e5-1080-4712-8fc8-5d5664a3d9a4" d="M294.19,89.25A17.44,17.44,0,0,0,276.63,72l-32.87.11a41.55,41.55,0,0,0,13.05-31.27C256.28,19.26,238.87,1.33,217.19.07A42,42,0,0,0,172.48,42a41.54,41.54,0,0,0,13.27,30.3l-37.83.12A17.43,17.43,0,0,0,130.47,89.8l.44,127.64a17.43,17.43,0,0,0,17.56,17.3l128.71-.44a17.43,17.43,0,0,0,17.45-17.41Z"/>
      </g>
    </g>
  </g>
</svg>
