<svg id="a3dca272-ec34-4009-9c72-00af1cc0377c" data-name="Layer 1" xmlns="http://www.w3.org/2000/svg" xmlns:xlink="http://www.w3.org/1999/xlink" viewBox="0 0 112.17 178.14"><defs><style>.a2330952-8b8b-4d13-ba3c-4e15331a9a0f{fill:url(#abcc58d9-09a0-4148-a071-2e0b8c819ee0);}.bbe166da-30c4-4dfc-94d4-8b68c2f81d9a{fill:url(#f73ad74f-bbb1-462d-a024-cd1afd234136);}</style><linearGradient id="abcc58d9-09a0-4148-a071-2e0b8c819ee0" x1="162.17" y1="490.4" x2="323.02" y2="491.97" gradientTransform="matrix(1.61, 0, 0, -1.61, 0, 1290.28)" gradientUnits="userSpaceOnUse"><stop offset="0" stop-color="#fedf1a"/><stop offset="0.15" stop-color="#fba658"/><stop offset="0.23" stop-color="#f6789c"/><stop offset="0.29" stop-color="#c86bd5"/><stop offset="0.39" stop-color="#9c88db"/><stop offset="0.49" stop-color="#ae9ee2"/><stop offset="0.56" stop-color="#5caee4"/><stop offset="0.65" stop-color="#19d2e3"/><stop offset="0.75" stop-color="#18ddd4"/><stop offset="0.84" stop-color="#2de4ba"/><stop offset="0.89" stop-color="#80efd5"/><stop offset="0.95" stop-color="#62fc6c"/><stop offset="1" stop-color="#62fc6c"/></linearGradient><linearGradient id="f73ad74f-bbb1-462d-a024-cd1afd234136" x1="162.19" y1="538.22" x2="329.21" y2="542.01" xlink:href="#abcc58d9-09a0-4148-a071-2e0b8c819ee0"/></defs><g id="a0854f37-463c-43fc-986a-c020375ec3fa" data-name="Layer 4"><path class="a2330952-8b8b-4d13-ba3c-4e15331a9a0f" d="M265.85,468.63l88.65,76.7a11.76,11.76,0,0,0,16.59-1.19h0a11.76,11.76,0,0,0-1.2-16.59l-88.65-76.71a11.76,11.76,0,0,0-16.59,1.2h0A11.76,11.76,0,0,0,265.85,468.63Z" transform="translate(-261.79 -370.06)"/></g><g id="a5a63c53-67e7-403d-b87d-d4b7553713ef" data-name="Layer 4 copy"><path class="bbe166da-30c4-4dfc-94d4-8b68c2f81d9a" d="M265.85,449.63l88.65-76.71a11.77,11.77,0,0,1,16.59,1.2h0a11.76,11.76,0,0,1-1.2,16.59l-88.65,76.71a11.76,11.76,0,0,1-16.59-1.2h0A11.76,11.76,0,0,1,265.85,449.63Z" transform="translate(-261.79 -370.06)"/></g></svg>