<svg version="1.2" baseProfile="tiny-ps" xmlns="http://www.w3.org/2000/svg" viewBox="0 0 190 125" width="190" height="125">
	<title>ARROW-down-svg</title>
	<defs>
		<linearGradient id="grd1" gradientUnits="userSpaceOnUse"  x1="7.108" y1="62.589" x2="183.982" y2="62.589">
			<stop offset="0" stop-color="#fedf1a"  />
			<stop offset="0.15" stop-color="#fba658"  />
			<stop offset="0.23" stop-color="#f6789c"  />
			<stop offset="0.29" stop-color="#c86bd5"  />
			<stop offset="0.39" stop-color="#9c88db"  />
			<stop offset="0.49" stop-color="#ae9ee2"  />
			<stop offset="0.56" stop-color="#5caee4"  />
			<stop offset="0.65" stop-color="#19d2e3"  />
			<stop offset="0.75" stop-color="#18ddd4"  />
			<stop offset="0.84" stop-color="#2de4ba"  />
			<stop offset="0.89" stop-color="#80efd5"  />
			<stop offset="0.95" stop-color="#62fc6c"  />
			<stop offset="1" stop-color="#62fc6c"  />
		</linearGradient>
	</defs>
	<style>
		tspan { white-space:pre }
		.shp0 { fill: url(#grd1);stroke: #b834ff;stroke-width: 12.39 } 
	</style>
	<g id="b4e0af06-b9a1-4d5a-866f-c69f876ade62">
		<g id="b6048fbf-9ecd-4639-9874-9b8d9897ec22">
			<g id="b0e8c8a8-8d15-409c-b138-8c1a4ccfced3">
				<path id="Layer" class="shp0" d="M183.78 17.13C183.62 14.81 182.77 12.58 181.34 10.74C179.91 8.9 177.97 7.52 175.76 6.79C173.55 6.05 171.17 5.99 168.92 6.61C166.67 7.23 164.66 8.5 163.14 10.27L95.14 88.86L27.14 10.27C25.1 7.91 22.21 6.46 19.1 6.23C15.98 6 12.91 7.02 10.55 9.06C8.19 11.1 6.74 13.99 6.51 17.1C6.28 20.22 7.3 23.29 9.34 25.65L86.06 114.28C86.17 114.39 86.29 114.49 86.41 114.6C86.53 114.7 86.65 114.8 86.77 114.9C86.89 114.99 87.02 115.09 87.14 115.18C87.27 115.27 87.4 115.36 87.53 115.45L87.53 115.45C87.53 115.45 87.63 115.51 87.68 115.55C87.94 115.77 88.2 115.97 88.48 116.17C88.75 116.36 89.04 116.54 89.33 116.71C89.62 116.87 89.92 117.03 90.23 117.17C90.53 117.31 90.84 117.44 91.16 117.55C91.27 117.59 91.38 117.62 91.5 117.66C91.61 117.69 91.72 117.72 91.83 117.75C91.95 117.78 92.06 117.81 92.18 117.84C92.29 117.86 92.4 117.89 92.52 117.91C92.94 118.01 93.36 118.08 93.79 118.13C94.21 118.18 94.64 118.21 95.07 118.21C95.5 118.21 95.93 118.18 96.35 118.13C96.78 118.08 97.2 118.01 97.62 117.91C97.74 117.89 97.85 117.86 97.96 117.84C98.08 117.81 98.19 117.78 98.31 117.75C98.42 117.72 98.53 117.69 98.64 117.66C98.76 117.62 98.87 117.59 98.98 117.55C99.3 117.44 99.61 117.31 99.91 117.17C100.22 117.03 100.52 116.87 100.81 116.71C101.1 116.54 101.39 116.36 101.66 116.17C101.94 115.97 102.2 115.77 102.46 115.55L102.61 115.45C102.61 115.45 102.61 115.45 102.66 115.45C102.79 115.36 102.92 115.27 103.04 115.18C103.17 115.09 103.29 114.99 103.42 114.9C103.54 114.8 103.66 114.7 103.77 114.6C103.89 114.49 104.01 114.39 104.12 114.28L180.95 25.65C181.45 25.07 181.9 24.44 182.28 23.77C182.66 23.1 182.97 22.4 183.21 21.67C183.46 20.94 183.63 20.19 183.72 19.43C183.82 18.67 183.84 17.9 183.78 17.13L183.78 17.13Z" />
			</g>
		</g>
	</g>
</svg>