<svg id="ef7b7e5a-7e47-4a72-ad65-0af23968dfa5" data-name="Layer 1" xmlns="http://www.w3.org/2000/svg" xmlns:xlink="http://www.w3.org/1999/xlink" viewBox="0 0 112.17 177.28"><defs><style>.a791e002-6852-4a41-b8a8-a87e8aae4197{fill:url(#af9633e7-cbb5-43c8-a476-7e9892acaa42);}.b29a2cdc-2cbf-42f9-baff-dfe631e4fc47{fill:url(#edf37a0b-9301-45ee-86f9-b03665cdc6d2);}</style><linearGradient id="af9633e7-cbb5-43c8-a476-7e9892acaa42" x1="23.92" y1="495.5" x2="263.18" y2="488.92" gradientTransform="translate(635.74 1290.28) rotate(180) scale(1.61)" gradientUnits="userSpaceOnUse"><stop offset="0" stop-color="#fedf1a"/><stop offset="0.15" stop-color="#fba658"/><stop offset="0.23" stop-color="#f6789c"/><stop offset="0.29" stop-color="#c86bd5"/><stop offset="0.39" stop-color="#9c88db"/><stop offset="0.49" stop-color="#ae9ee2"/><stop offset="0.56" stop-color="#5caee4"/><stop offset="0.65" stop-color="#19d2e3"/><stop offset="0.75" stop-color="#18ddd4"/><stop offset="0.84" stop-color="#2de4ba"/><stop offset="0.89" stop-color="#80efd5"/><stop offset="0.95" stop-color="#62fc6c"/><stop offset="1" stop-color="#62fc6c"/></linearGradient><linearGradient id="edf37a0b-9301-45ee-86f9-b03665cdc6d2" x1="23.92" y1="495.5" x2="263.18" y2="488.92" gradientTransform="matrix(-1.61, 0, 0, 1.61, 635.74, -371.15)" xlink:href="#af9633e7-cbb5-43c8-a476-7e9892acaa42"/></defs><g id="f917515a-4ebd-41a1-b81a-a1ee6e6e08be" data-name="Layer 4 copy copy"><path class="a791e002-6852-4a41-b8a8-a87e8aae4197" d="M369.89,468.63l-88.65,76.7a11.76,11.76,0,0,1-16.59-1.19h0a11.76,11.76,0,0,1,1.2-16.59l88.65-76.71a11.76,11.76,0,0,1,16.59,1.2h0A11.76,11.76,0,0,1,369.89,468.63Z" transform="translate(-261.79 -370.92)"/></g><g id="f5daac3a-2699-48d0-be26-4a26dffcfac7" data-name="Layer 4 copy copy copy"><path class="b29a2cdc-2cbf-42f9-baff-dfe631e4fc47" d="M369.89,450.5l-88.65-76.71a11.76,11.76,0,0,0-16.59,1.2h0a11.75,11.75,0,0,0,1.2,16.58l88.65,76.71a11.75,11.75,0,0,0,16.59-1.2h0A11.75,11.75,0,0,0,369.89,450.5Z" transform="translate(-261.79 -370.92)"/></g></svg>