<svg version="1.2" baseProfile="tiny-ps" xmlns="http://www.w3.org/2000/svg" viewBox="0 0 97 106" width="67" height="73">
	<title>SHAPES-svg</title>
	<style>
		tspan { white-space:pre }
		.shp0 { fill: #000000 } 
	</style>
	<g id="a347acd9-def3-41c7-b0b1-b56685b6f87b">
		<g id="b2c04f8a-f8be-4528-981f-35e276e90628">
			<g id="b5c09f50-df10-4fc3-9356-5c118ac78139">
				<path id="Layer" class="shp0" d="M29.92 0C29.92 0 29.92 0.09 29.92 0.12L10.51 0.12C9.14 0.12 7.78 0.39 6.51 0.91C5.24 1.44 4.09 2.21 3.12 3.18C2.15 4.15 1.38 5.3 0.85 6.56C0.33 7.83 0.05 9.19 0.05 10.56C0.05 11.93 0.05 34.34 0.05 35.25L-0.01 35.25L-0.01 41.8L1.89 40.8C2.33 40.55 2.79 40.33 3.25 40.14C3.72 39.95 4.2 39.79 4.68 39.65C5.17 39.51 5.66 39.4 6.16 39.33C6.66 39.25 7.17 39.2 7.67 39.18C11.08 39.18 14.35 40.49 16.81 42.85C19.27 45.21 20.73 48.42 20.88 51.82C21.03 55.23 19.86 58.56 17.61 61.12C15.36 63.68 12.21 65.27 8.82 65.57C8.29 65.59 7.76 65.58 7.23 65.54C6.71 65.5 6.18 65.42 5.67 65.31C5.15 65.21 4.64 65.07 4.14 64.89C3.64 64.72 3.15 64.52 2.67 64.29L2.67 64.08L2.06 63.9L2 63.9C1.98 63.89 1.95 63.88 1.93 63.87C1.9 63.86 1.88 63.84 1.86 63.83C1.84 63.82 1.81 63.8 1.79 63.79C1.77 63.77 1.75 63.76 1.73 63.74L1.42 63.47L1.11 63.21L0.08 62.3L0.08 63L0.08 63L0.08 69.51L0.08 69.51L0.08 79.41L0.08 79.41L0.08 94.73C0.08 94.81 0.08 94.9 0.08 94.98C0.09 95.06 0.09 95.15 0.1 95.23C0.1 95.31 0.11 95.4 0.11 95.48C0.12 95.56 0.13 95.65 0.14 95.73C0.15 95.81 0.14 95.79 0.14 95.83L0.14 95.83C0.2 96.41 0.32 96.99 0.48 97.55C0.64 98.12 0.85 98.67 1.1 99.19C1.36 99.72 1.66 100.23 2 100.7C2.34 101.18 2.72 101.63 3.14 102.04L3.14 102.09L3.24 102.15C3.72 102.62 4.24 103.03 4.8 103.4C5.36 103.76 5.96 104.07 6.58 104.32C7.2 104.57 7.84 104.76 8.5 104.89C9.15 105.02 9.82 105.08 10.49 105.08L37.19 105.08L36.72 104.69L36.8 104.69L35.8 102.79C33.99 99.25 33.88 95.09 35.49 91.45C37.11 87.82 40.27 85.11 44.11 84.08C47.94 83.04 52.04 83.79 55.26 86.12C58.48 88.45 60.48 92.1 60.7 96.07C60.72 96.63 60.7 97.18 60.65 97.74C60.6 98.3 60.51 98.85 60.39 99.39C60.27 99.93 60.11 100.47 59.92 100.99C59.72 101.52 59.5 102.03 59.24 102.52L59.24 102.52L59.05 102.84L59.05 102.84L59 103C59 103.01 59 103.01 59 103.02C59 103.03 59 103.03 59 103.04C59 103.05 59 103.05 59 103.06C59 103.07 59 103.07 59 103.08C58.83 103.33 58.61 103.6 58.37 103.89L58.31 103.89L58.31 103.89L58.22 103.98L58.22 103.98L57.22 105.06L86.12 105.06C87.48 105.05 88.83 104.78 90.09 104.25C91.34 103.73 92.49 102.97 93.45 102C94.41 101.04 95.18 99.9 95.71 98.64C96.23 97.39 96.51 96.04 96.52 94.68L96.52 78.07L96.46 78.07L96.46 64.6L96.23 64.92L96.23 64.38L94.32 65.38C93.88 65.63 93.42 65.85 92.95 66.04C92.48 66.23 92 66.4 91.51 66.53C91.02 66.67 90.53 66.78 90.02 66.86C89.52 66.93 89.02 66.98 88.51 67C85.07 67.03 81.75 65.72 79.27 63.34C76.78 60.97 75.31 57.72 75.18 54.28C75.05 50.84 76.27 47.49 78.57 44.93C80.87 42.38 84.08 40.82 87.51 40.59C88.06 40.57 88.6 40.59 89.15 40.64C89.69 40.69 90.23 40.77 90.76 40.89C91.3 41.01 91.82 41.16 92.34 41.35C92.85 41.53 93.35 41.75 93.84 42L93.84 42.1L94.23 42.27C94.29 42.3 94.36 42.33 94.42 42.36C94.48 42.39 94.55 42.42 94.61 42.45C94.67 42.49 94.73 42.52 94.79 42.56C94.85 42.59 94.91 42.63 94.97 42.67L94.97 42.67C95.01 42.7 95.06 42.73 95.11 42.76C95.15 42.79 95.2 42.82 95.25 42.84C95.3 42.87 95.35 42.9 95.4 42.92C95.45 42.94 95.5 42.96 95.55 42.98L96.41 43.29L96.41 26.29L96.48 26.29L96.48 10.53C96.48 9.16 96.2 7.8 95.67 6.53C95.14 5.26 94.37 4.11 93.4 3.15C92.43 2.18 91.27 1.41 90 0.89C88.73 0.36 87.37 0.1 86 0.1L57.63 0.12L58.88 1.24L58.98 1.35L58.98 1.35L59.33 2.01C59.58 2.45 59.8 2.91 60 3.38C60.2 3.85 60.37 4.34 60.51 4.83C60.65 5.32 60.76 5.82 60.84 6.32C60.92 6.82 60.98 7.33 61 7.84C61.03 11.28 59.72 14.6 57.34 17.08C54.97 19.57 51.72 21.04 48.28 21.17C44.84 21.3 41.49 20.08 38.93 17.78C36.38 15.48 34.82 12.27 34.59 8.84C34.57 8.32 34.58 7.79 34.63 7.27C34.67 6.74 34.75 6.22 34.86 5.71C34.97 5.2 35.11 4.69 35.28 4.19C35.45 3.7 35.65 3.21 35.88 2.74L35.96 2.74L36.12 2.32C36.14 2.26 36.16 2.21 36.19 2.15C36.22 2.1 36.25 2.05 36.28 1.99C36.31 1.94 36.34 1.89 36.38 1.84C36.41 1.79 36.45 1.75 36.49 1.7L36.67 1.46L36.81 1.3L36.92 1.14L37.31 0.49L37.63 0.14L37.23 0.14L37.23 0.06L29.92 0Z" />
				<path id="Layer" class="shp0" d="M31.3 1.3L34.64 1.3L34.52 1.42L10.52 1.42C9.32 1.42 8.13 1.65 7.02 2.11C5.91 2.57 4.9 3.24 4.05 4.08C3.2 4.93 2.52 5.94 2.05 7.04C1.59 8.15 1.35 9.34 1.34 10.54L1.36 24L1.36 24L1.36 24C1.36 17.27 1.36 10.51 1.36 10.5C1.36 9.3 1.6 8.11 2.06 7C2.53 5.89 3.2 4.88 4.05 4.04C4.91 3.19 5.92 2.52 7.03 2.06C8.14 1.6 9.33 1.37 10.53 1.37L31.33 1.37L31.3 1.3Z" />
				<path id="Layer" class="shp0" d="M86 1.39C86.18 1.39 86.36 1.4 86.53 1.41C86.71 1.42 86.89 1.44 87.06 1.46C87.24 1.48 87.41 1.51 87.59 1.54C87.76 1.57 87.94 1.61 88.11 1.65C88.02 1.63 87.93 1.61 87.84 1.59C87.74 1.57 87.65 1.55 87.56 1.54C87.47 1.52 87.37 1.51 87.28 1.49C87.19 1.48 87.09 1.47 87 1.46L86.89 1.46C86.59 1.41 86.3 1.4 86 1.39Z" />
				<path id="Layer" class="shp0" d="M60.49 1.41L62.34 1.41L62.34 1.46L60.54 1.46L60.95 2.38C60.81 2.07 60.68 1.76 60.52 1.46L60.49 1.41Z" />
				<path id="Layer" class="shp0" d="M35 1.43L35 1.43L34.85 1.73L35 1.43Z" />
				<path id="Layer" class="shp0" d="M88.13 1.65C89.12 1.88 90.07 2.28 90.94 2.83C91.8 3.37 92.57 4.06 93.2 4.86C93.84 5.66 94.33 6.56 94.67 7.53C95.01 8.49 95.18 9.51 95.18 10.53L95.18 24.15L95.12 24.15L95.12 10.51C95.11 10.31 95.09 10.1 95.07 9.9C95.04 9.7 95.01 9.5 94.96 9.3C94.92 9.1 94.87 8.91 94.81 8.71C94.75 8.52 94.68 8.33 94.6 8.14C94.54 7.99 94.48 7.84 94.42 7.69C94.36 7.54 94.3 7.39 94.23 7.24C94.16 7.09 94.09 6.94 94.02 6.8C93.95 6.65 93.88 6.5 93.8 6.36C93.52 5.81 93.22 5.28 92.92 4.79L92.63 4.32L92.48 4.09L92.48 4.09L92.25 3.87L92.15 3.79C92.1 3.74 92.04 3.69 91.99 3.64C91.93 3.6 91.88 3.55 91.82 3.5C91.77 3.46 91.71 3.41 91.65 3.37C91.6 3.33 91.54 3.28 91.48 3.24C91.23 3.05 90.98 2.88 90.71 2.71C90.44 2.55 90.17 2.4 89.89 2.27C89.61 2.14 89.32 2.02 89.03 1.91C88.73 1.81 88.43 1.72 88.13 1.65L88.13 1.65Z" />
				<path id="Layer" class="shp0" d="M34.78 1.92C34.67 2.13 34.59 2.35 34.5 2.56L34.58 2.35L34.78 1.92Z" />
				<path id="Layer" class="shp0" d="M86 2.69C86.26 2.69 86.53 2.69 86.78 2.69L86.78 2.69C87.13 2.72 87.48 2.78 87.82 2.86C88.16 2.95 88.49 3.05 88.82 3.18C89.15 3.3 89.47 3.45 89.78 3.62C90.08 3.79 90.38 3.98 90.66 4.19C90.71 4.23 90.76 4.27 90.81 4.3C90.86 4.34 90.91 4.38 90.96 4.42C91.01 4.46 91.05 4.5 91.1 4.54C91.15 4.59 91.19 4.63 91.24 4.67L91.48 4.88C91.48 4.89 91.49 4.9 91.49 4.91C91.5 4.91 91.5 4.92 91.51 4.93C91.51 4.94 91.52 4.95 91.52 4.96C91.53 4.96 91.53 4.97 91.54 4.98C91.62 5.11 91.72 5.25 91.82 5.42C92.1 5.89 92.39 6.42 92.65 6.91C92.72 7.04 92.79 7.18 92.85 7.31C92.92 7.45 92.98 7.59 93.04 7.72C93.11 7.86 93.17 8 93.22 8.14C93.28 8.28 93.34 8.42 93.39 8.56C93.45 8.71 93.51 8.87 93.56 9.02C93.61 9.18 93.66 9.34 93.69 9.5C93.73 9.66 93.76 9.82 93.78 9.98C93.81 10.14 93.82 10.31 93.83 10.47L93.83 38L93.74 38L93.74 39.1C93.24 38.9 92.73 38.72 92.21 38.57C91.69 38.43 91.17 38.3 90.63 38.21C90.1 38.12 89.57 38.06 89.03 38.02C88.49 37.99 87.95 37.98 87.41 38C83.29 38.25 79.43 40.1 76.66 43.15C73.88 46.21 72.42 50.23 72.57 54.36C72.72 58.48 74.48 62.38 77.47 65.23C80.47 68.07 84.45 69.63 88.58 69.57C89.01 69.55 89.43 69.52 89.86 69.46C90.28 69.41 90.71 69.34 91.12 69.25C91.54 69.16 91.96 69.06 92.37 68.93C92.78 68.81 93.18 68.67 93.58 68.51L93.58 71.79L93.85 71.68L93.85 79.25L93.85 79.25L93.85 79.25L93.91 79.38L93.91 94.66C93.91 95.7 93.7 96.72 93.3 97.67C92.91 98.63 92.32 99.5 91.59 100.23C90.85 100.95 89.98 101.53 89.02 101.92C88.06 102.31 87.04 102.51 86 102.5L64 102.5L64.1 102.27L62.14 102.27C62.34 101.78 62.52 101.27 62.67 100.76C62.82 100.24 62.94 99.72 63.04 99.19C63.13 98.67 63.2 98.14 63.24 97.6C63.28 97.07 63.29 96.53 63.27 96C63.02 91.89 61.17 88.04 58.12 85.27C55.08 82.5 51.07 81.03 46.95 81.17C42.83 81.32 38.94 83.06 36.09 86.04C33.24 89.01 31.66 92.98 31.7 97.1C31.72 97.53 31.75 97.95 31.8 98.38C31.85 98.8 31.92 99.23 32.01 99.65C32.1 100.06 32.2 100.48 32.33 100.89C32.45 101.3 32.59 101.7 32.75 102.1L30.02 102.1L30.28 102.53L10.54 102.53C10.03 102.53 9.51 102.47 9.01 102.37C8.5 102.27 8.01 102.12 7.54 101.92C7.06 101.72 6.61 101.47 6.18 101.18C5.76 100.9 5.36 100.57 5 100.2L4.6 99.55C4.32 99.08 4.05 98.55 3.8 98.09C3.65 97.83 3.52 97.57 3.4 97.3C3.28 97.03 3.18 96.75 3.09 96.47C3 96.18 2.92 95.9 2.86 95.61C2.8 95.32 2.76 95.02 2.73 94.73L2.73 82.14C2.73 82.12 2.73 82.11 2.73 82.09C2.73 82.08 2.73 82.06 2.73 82.05C2.73 82.03 2.73 82.01 2.73 82C2.73 81.98 2.73 81.97 2.73 81.95C2.73 81.81 2.73 81.63 2.73 81.44L2.73 80.93C2.73 80.91 2.73 80.9 2.73 80.88C2.73 80.87 2.73 80.85 2.73 80.83C2.73 80.82 2.73 80.8 2.73 80.79C2.73 80.77 2.73 80.76 2.73 80.74L2.73 80.65C2.73 80.64 2.73 80.64 2.73 80.63C2.73 80.62 2.73 80.62 2.73 80.61C2.73 80.6 2.73 80.6 2.73 80.59C2.73 80.58 2.73 80.58 2.73 80.57L2.73 80.57L2.73 67.07C3.23 67.27 3.73 67.44 4.25 67.58C4.76 67.73 5.28 67.84 5.81 67.93C6.34 68.02 6.87 68.09 7.4 68.12C7.93 68.15 8.47 68.16 9 68.14C9.97 68.08 10.94 67.94 11.89 67.7C12.83 67.47 13.76 67.14 14.64 66.74C15.53 66.33 16.38 65.85 17.18 65.29C17.98 64.72 18.72 64.09 19.4 63.39C21.61 61.14 23.09 58.28 23.66 55.18C24.23 52.08 23.85 48.88 22.58 45.99C21.31 43.11 19.21 40.67 16.54 38.99C13.87 37.31 10.76 36.47 7.61 36.58C7.18 36.6 6.76 36.63 6.33 36.68C5.91 36.73 5.48 36.8 5.06 36.89C4.65 36.98 4.23 37.09 3.82 37.21C3.41 37.34 3.01 37.48 2.61 37.64L2.61 24.15L2.61 24.15C2.61 24.14 2.61 24.14 2.61 24.13C2.61 24.12 2.61 24.11 2.61 24.1C2.61 24.1 2.61 24.09 2.61 24.08C2.61 24.07 2.61 24.07 2.61 24.06L2.61 10.56C2.62 9.53 2.82 8.51 3.22 7.56C3.62 6.61 4.2 5.75 4.93 5.02C5.66 4.3 6.53 3.72 7.49 3.33C8.44 2.94 9.46 2.74 10.49 2.74L33.02 2.74C32.83 3.23 32.67 3.73 32.53 4.24C32.39 4.75 32.28 5.26 32.19 5.78C32.1 6.3 32.05 6.83 32.01 7.35C31.98 7.88 31.98 8.4 32 8.93C32.05 9.91 32.19 10.88 32.42 11.83C32.64 12.78 32.96 13.71 33.36 14.6C33.76 15.49 34.24 16.35 34.8 17.15C35.36 17.95 35.99 18.7 36.69 19.39C38.93 21.6 41.77 23.09 44.86 23.68C47.95 24.26 51.15 23.9 54.03 22.65C56.92 21.4 59.37 19.32 61.06 16.67C62.75 14.02 63.61 10.92 63.53 7.78C63.51 7.35 63.48 6.93 63.43 6.5C63.38 6.08 63.31 5.65 63.22 5.23C63.13 4.82 63.03 4.4 62.9 3.99C62.78 3.58 62.64 3.18 62.48 2.78L63.4 2.78L63.4 2.78L86 2.69Z" />
				<path id="Layer" class="shp0" d="M34 3.89L33.88 4.29L34 3.89Z" />
				<path id="Layer" class="shp0" d="M61.84 5C61.84 5.2 61.93 5.39 61.97 5.59C61.93 5.35 61.89 5.16 61.84 5Z" />
				<path id="Layer" class="shp0" d="M33.54 5.49C33.54 5.76 33.45 6.03 33.41 6.3C33.45 6 33.48 5.76 33.54 5.49Z" />
				<path id="Layer" class="shp0" d="M62.11 6.33C62.11 6.7 62.19 7.07 62.21 7.44C62.19 7.07 62.16 6.7 62.11 6.33Z" />
				<path id="Layer" class="shp0" d="M33.29 7.18C33.28 7.32 33.27 7.46 33.27 7.6C33.27 7.75 33.26 7.89 33.26 8.03C33.26 8.17 33.27 8.31 33.27 8.46C33.27 8.6 33.28 8.74 33.29 8.88C33.29 9.33 33.36 9.78 33.42 10.22C33.45 10.42 33.48 10.61 33.52 10.81C33.56 11 33.6 11.2 33.64 11.39C33.69 11.58 33.74 11.78 33.79 11.97C33.84 12.16 33.9 12.35 33.96 12.54C33.9 12.35 33.84 12.16 33.79 11.97C33.74 11.78 33.69 11.58 33.64 11.39C33.6 11.2 33.56 11 33.52 10.81C33.48 10.61 33.45 10.42 33.42 10.22C33.36 9.78 33.31 9.33 33.29 8.88C33.28 8.74 33.27 8.6 33.27 8.46C33.26 8.31 33.26 8.17 33.26 8.03C33.26 7.89 33.26 7.75 33.27 7.6C33.27 7.46 33.28 7.32 33.29 7.18L33.29 7.18Z" />
				<path id="Layer" class="shp0" d="M46 22.58C46.41 22.63 46.82 22.67 47.23 22.68C47.64 22.69 48.28 22.68 48.79 22.68C48.28 22.68 47.79 22.68 47.24 22.68C46.69 22.68 46.37 22.63 46 22.58Z" />
				<path id="Layer" class="shp0" d="M1.36 36.2L1.36 39.6L1.72 39.44C1.58 39.51 1.44 39.56 1.3 39.64L1.3 36.22L1.36 36.2Z" />
				<path id="Layer" class="shp0" d="M7.15 37.92C6.84 37.92 6.53 37.92 6.22 38C6.53 38 6.84 37.94 7.15 37.92Z" />
				<path id="Layer" class="shp0" d="M5.26 38.19L4.87 38.27L5.26 38.19Z" />
				<path id="Layer" class="shp0" d="M87.47 39.27C87.62 39.26 87.76 39.25 87.91 39.24C88.05 39.24 88.2 39.24 88.34 39.24C88.49 39.24 88.64 39.24 88.78 39.24C88.93 39.25 89.07 39.26 89.22 39.27C89.07 39.26 88.93 39.25 88.78 39.25C88.64 39.24 88.49 39.24 88.34 39.24C88.2 39.24 88.05 39.24 87.91 39.25C87.76 39.25 87.62 39.26 87.47 39.27C87.01 39.27 86.57 39.33 86.12 39.39C86.57 39.34 87 39.29 87.47 39.27Z" />
				<path id="Layer" class="shp0" d="M90.23 39.46L90.89 39.56L90.23 39.46Z" />
				<path id="Layer" class="shp0" d="M95 39.75L95.11 39.75L95.11 41.11L94.85 41L95.03 41.08L95 39.75Z" />
				<path id="Layer" class="shp0" d="M92.22 39.93L92.55 40.02L92.22 39.93Z" />
				<path id="Layer" class="shp0" d="M94 40.6L94.11 40.6L94.49 40.77L94 40.6Z" />
				<path id="Layer" class="shp0" d="M73.78 51.88C73.72 52.33 73.69 52.77 73.67 53.23C73.66 53.36 73.66 53.49 73.65 53.62C73.65 53.75 73.65 53.88 73.65 54.01C73.65 54.13 73.65 54.26 73.65 54.39C73.66 54.52 73.66 54.65 73.67 54.78C73.67 54.27 73.67 53.78 73.67 53.23C73.67 52.68 73.72 52.33 73.78 51.88Z" />
				<path id="Layer" class="shp0" d="M20.88 59.23C20.77 59.43 20.66 59.62 20.54 59.82C20.43 60.01 20.31 60.2 20.18 60.38C20.06 60.57 19.93 60.76 19.79 60.94C19.66 61.12 19.52 61.3 19.38 61.47C19.52 61.3 19.66 61.12 19.79 60.94C19.93 60.76 20.06 60.57 20.18 60.38C20.31 60.2 20.43 60.01 20.54 59.82C20.66 59.62 20.77 59.43 20.88 59.23L20.88 59.23Z" />
				<path id="Layer" class="shp0" d="M1.37 65.12L1.59 65.22L1.37 65.12Z" />
				<path id="Layer" class="shp0" d="M1.33 65.12L1.33 65.12L1.33 68.67L1.33 68.67L1.33 65.12Z" />
				<path id="Layer" class="shp0" d="M2 65.4C2.16 65.48 2.33 65.54 2.49 65.61L2.3 65.54L2 65.4Z" />
				<path id="Layer" class="shp0" d="M3.88 66.16L4.07 66.16L3.88 66.16Z" />
				<path id="Layer" class="shp0" d="M94.91 66.53L94.91 68.13L95.16 67.93L95.16 80.19L95.22 80.19L95.22 94.68C95.22 95.88 94.98 97.07 94.52 98.18C94.05 99.29 93.38 100.3 92.53 101.14C91.67 101.99 90.66 102.66 89.55 103.12C88.44 103.58 87.25 103.81 86.05 103.81L60 103.81L60.19 103.46L60.19 103.55L62.19 103.55L62.09 103.79L86 103.79C87.2 103.79 88.39 103.55 89.5 103.09C90.61 102.64 91.62 101.96 92.47 101.11C93.32 100.27 94 99.26 94.46 98.15C94.93 97.04 95.17 95.85 95.17 94.65L95.17 69.75L94.91 69.85L94.91 66.54L94 67C94.3 66.82 94.6 66.69 94.91 66.53Z" />
				<path id="Layer" class="shp0" d="M5.54 66.59L5.86 66.59L5.54 66.59Z" />
				<path id="Layer" class="shp0" d="M7.21 66.83C7.35 66.84 7.49 66.85 7.63 66.85C7.77 66.85 7.91 66.86 8.05 66.86C8.19 66.86 8.33 66.85 8.47 66.85C8.61 66.85 8.75 66.84 8.89 66.83C8.75 66.84 8.61 66.85 8.47 66.85C8.33 66.85 8.19 66.86 8.05 66.86C7.91 66.86 7.77 66.85 7.63 66.85C7.49 66.85 7.35 66.84 7.21 66.83L7.21 66.83Z" />
				<path id="Layer" class="shp0" d="M92.73 67.46L92.5 67.54L92.73 67.46Z" />
				<path id="Layer" class="shp0" d="M91.38 67.87L90.91 67.97L91.38 67.87Z" />
				<path id="Layer" class="shp0" d="M90 68.14C89.69 68.14 89.39 68.2 89.08 68.22C89.38 68.2 89.68 68.18 90 68.14Z" />
				<path id="Layer" class="shp0" d="M1.38 80.65L1.38 80.65L1.38 94.73C1.41 95.08 1.45 95.42 1.52 95.76C1.58 96.1 1.66 96.43 1.76 96.77C1.86 97.1 1.98 97.42 2.12 97.74C2.26 98.06 2.41 98.37 2.58 98.67C2.85 99.2 3.14 99.67 3.44 100.21L3.91 100.98L3.91 100.98L3.91 100.98C3.96 101.03 4.01 101.08 4.06 101.13C4.11 101.18 4.16 101.23 4.21 101.27C4.26 101.32 4.31 101.37 4.36 101.41C4.41 101.46 4.47 101.51 4.52 101.55L4.06 101.14L4.01 101.14L3.94 101.14C3.58 100.78 3.25 100.39 2.96 99.97C2.67 99.55 2.41 99.11 2.19 98.65C1.97 98.19 1.79 97.72 1.65 97.23C1.51 96.74 1.42 96.24 1.36 95.73C1.36 95.72 1.36 95.72 1.36 95.71C1.36 95.7 1.36 95.7 1.36 95.69C1.36 95.68 1.36 95.68 1.36 95.67C1.36 95.66 1.36 95.66 1.36 95.65L1.36 95.65C1.36 95.34 1.36 95.03 1.36 94.73L1.38 80.65Z" />
				<path id="Layer" class="shp0" d="M48 82.19C48.41 82.19 48.82 82.25 49.23 82.3C48.82 82.3 48.41 82.21 48 82.2C47.59 82.19 47 82.2 46.45 82.2C47 82.19 47.51 82.17 48 82.19Z" />
				<path id="Layer" class="shp0" d="M62 96C62.01 96.15 62.02 96.29 62.02 96.44C62.03 96.58 62.03 96.73 62.03 96.88C62.03 97.02 62.03 97.17 62.02 97.31C62.02 97.46 62.01 97.6 62 97.75C62.01 97.6 62.02 97.46 62.02 97.31C62.03 97.17 62.03 97.02 62.03 96.88C62.03 96.73 62.03 96.58 62.02 96.44C62.02 96.29 62.01 96.15 62 96Z" />
				<path id="Layer" class="shp0" d="M33 97.44C33 97.81 33 98.19 33.1 98.56C33.07 98.18 33 97.81 33 97.44Z" />
				<path id="Layer" class="shp0" d="M61.77 98.9C61.77 99.08 61.72 99.26 61.68 99.44C61.72 99.26 61.74 99.08 61.77 98.9Z" />
				<path id="Layer" class="shp0" d="M33.26 99.3C33.26 99.51 33.35 99.72 33.4 99.93C33.35 99.72 33.31 99.51 33.26 99.3Z" />
				<path id="Layer" class="shp0" d="M61.3 100.84C61.3 100.86 61.29 100.88 61.29 100.9C61.28 100.92 61.27 100.94 61.27 100.96C61.26 100.98 61.26 101 61.25 101.02C61.24 101.04 61.24 101.06 61.23 101.08C61.24 101.06 61.24 101.04 61.25 101.02C61.26 101 61.26 100.98 61.27 100.96C61.27 100.94 61.28 100.92 61.29 100.9C61.29 100.88 61.3 100.86 61.3 100.84Z" />
				<path id="Layer" class="shp0" d="M33.72 101C33.72 101.02 33.73 101.03 33.73 101.05C33.74 101.07 33.74 101.08 33.75 101.1C33.76 101.12 33.76 101.13 33.77 101.15C33.78 101.17 33.78 101.18 33.79 101.2C33.78 101.18 33.78 101.17 33.77 101.15C33.76 101.13 33.76 101.12 33.75 101.1C33.74 101.08 33.74 101.07 33.73 101.05C33.73 101.03 33.72 101.02 33.72 101Z" />
				<path id="Layer" class="shp0" d="M4.69 101.72C4.92 101.91 5.15 102.08 5.39 102.25C5.63 102.42 5.85 102.54 6.08 102.67C5.85 102.54 5.61 102.4 5.39 102.25C5.17 102.1 4.92 101.91 4.69 101.72Z" />
				<path id="Layer" class="shp0" d="M34.29 102.52C34.43 102.82 34.56 103.13 34.72 103.43L34.72 103.43L34.29 102.52Z" />
				<path id="Layer" class="shp0" d="M6.19 102.74L6.85 103.06L6.19 102.74Z" />
				<path id="Layer" class="shp0" d="M7 103.13C7.27 103.24 7.54 103.34 7.82 103.43C7.54 103.34 7.27 103.24 7 103.13Z" />
				<path id="Layer" class="shp0" d="M32.29 103.42L34.17 103.42L34.35 103.82L32.53 103.82C32.53 103.82 32.39 103.58 32.29 103.42Z" />
				<path id="Layer" class="shp0" d="M7.83 103.43C7.89 103.45 7.96 103.47 8.02 103.49C8.09 103.51 8.15 103.52 8.22 103.54C8.28 103.56 8.35 103.57 8.41 103.59C8.48 103.6 8.54 103.62 8.61 103.63C8.54 103.62 8.48 103.6 8.41 103.59C8.35 103.57 8.28 103.56 8.22 103.54C8.15 103.52 8.09 103.51 8.02 103.49C7.96 103.47 7.89 103.45 7.83 103.43L7.83 103.43Z" />
				<path id="Layer" class="shp0" d="M8.72 103.66C8.97 103.66 9.23 103.75 9.49 103.78C9.23 103.75 9 103.71 8.72 103.66Z" />
				<path id="Layer" class="shp0" d="M9.63 103.8L9.96 103.8L9.63 103.8Z" />
			</g>
		</g>
	</g>
</svg>