<svg xmlns="http://www.w3.org/2000/svg" xmlns:xlink="http://www.w3.org/1999/xlink" viewBox="0 0 46.13 8"><defs><style>.a2e1972d-c098-4f9b-8944-c569e86d5ed5{fill:url(#b5607de3-0b18-471b-853f-fd0e5f356c0d);}.f6d24df1-e8c3-42ab-9137-e7c4f5dc4049{fill:url(#b6ac8873-a48d-46e5-9fea-626592df2486);}.fdcf594d-9c7d-4110-a0ac-6baedb056df8{fill:url(#bdba6fed-3088-49ac-bd78-b5d84190ab13);}.b7a52f8c-0b2b-4170-b7cc-2f820ed2a14e{fill:url(#a7a09dbc-4e85-4060-a01c-9cb94d4e1941);}.bab89a16-f0b5-4fdf-a603-8110de8af120{fill:url(#f5be31bf-81d8-4d4e-8214-8ca373f8d6a0);}.b28b7957-2d59-4eab-99dc-91af631c51f7{fill:url(#e3fd48f7-18cb-4eb1-b6d9-3f104020a372);}</style><linearGradient id="b5607de3-0b18-471b-853f-fd0e5f356c0d" x1="995.95" y1="-1028.87" x2="1293.85" y2="-1010.16" gradientTransform="matrix(0.16, 0, 0, -0.16, -155.82, -159.91)" gradientUnits="userSpaceOnUse"><stop offset="0" stop-color="#fedf1a"/><stop offset="0.08" stop-color="#fba658"/><stop offset="0.17" stop-color="#f6789c"/><stop offset="0.26" stop-color="#c86bd5"/><stop offset="0.36" stop-color="#9c88db"/><stop offset="0.46" stop-color="#ae9ee2"/><stop offset="0.56" stop-color="#5caee4"/><stop offset="0.65" stop-color="#19d2e3"/><stop offset="0.75" stop-color="#18ddd4"/><stop offset="0.76" stop-color="#2de4ba"/><stop offset="0.89" stop-color="#80efd5"/><stop offset="0.92" stop-color="#62fc6c"/><stop offset="1" stop-color="#62fc6c"/></linearGradient><linearGradient id="b6ac8873-a48d-46e5-9fea-626592df2486" x1="996.12" y1="-1031.61" x2="1294.02" y2="-1012.91" xlink:href="#b5607de3-0b18-471b-853f-fd0e5f356c0d"/><linearGradient id="bdba6fed-3088-49ac-bd78-b5d84190ab13" x1="996.32" y1="-1034.79" x2="1294.22" y2="-1016.09" xlink:href="#b5607de3-0b18-471b-853f-fd0e5f356c0d"/><linearGradient id="a7a09dbc-4e85-4060-a01c-9cb94d4e1941" x1="996.5" y1="-1037.64" x2="1294.4" y2="-1018.93" xlink:href="#b5607de3-0b18-471b-853f-fd0e5f356c0d"/><linearGradient id="f5be31bf-81d8-4d4e-8214-8ca373f8d6a0" x1="996.69" y1="-1040.72" x2="1294.59" y2="-1022.02" xlink:href="#b5607de3-0b18-471b-853f-fd0e5f356c0d"/><linearGradient id="e3fd48f7-18cb-4eb1-b6d9-3f104020a372" x1="996.92" y1="-1044.29" x2="1294.82" y2="-1025.58" xlink:href="#b5607de3-0b18-471b-853f-fd0e5f356c0d"/></defs><g id="ae5204be-a8f7-4ed6-a782-82e135810177" data-name="Layer 2"><g id="a017558a-67d0-48f5-91e3-0f6c1ea4296c" data-name="Layer 1"><g id="a74d1552-327f-45b6-a06c-26098014548e" data-name="Custom copy copy copy copy"><path class="a2e1972d-c098-4f9b-8944-c569e86d5ed5" d="M4,8a3.86,3.86,0,0,1-2-.54A4,4,0,0,1,.54,6,3.87,3.87,0,0,1,0,4,3.87,3.87,0,0,1,.54,2,4.14,4.14,0,0,1,2,.54,3.82,3.82,0,0,1,4,0a3.21,3.21,0,0,1,1.5.38,3.06,3.06,0,0,1,1.13,1l-1,1.13a1.77,1.77,0,0,0-1.5-.67,2.19,2.19,0,0,0-1.15.29,2.12,2.12,0,0,0-.8.8,2.27,2.27,0,0,0,0,2.22,2.05,2.05,0,0,0,.8.8A2.13,2.13,0,0,0,4,6.21,2.29,2.29,0,0,0,4.9,6a1.88,1.88,0,0,0,.68-.5l1,1.16A3.09,3.09,0,0,1,4,8Z"/><path class="f6d24df1-e8c3-42ab-9137-e7c4f5dc4049" d="M11,8a3.52,3.52,0,0,1-1.89-.54A3.88,3.88,0,0,1,7.7,6a4.05,4.05,0,0,1-.5-2A4,4,0,0,1,9.07.53,3.61,3.61,0,0,1,11,0a3.52,3.52,0,0,1,1.89.54A4,4,0,0,1,14.24,2a4,4,0,0,1,.51,2,4,4,0,0,1-.51,2,3.88,3.88,0,0,1-1.38,1.46A3.52,3.52,0,0,1,11,8Zm0-1.82a1.81,1.81,0,0,0,1-.29,2,2,0,0,0,.7-.79,2.46,2.46,0,0,0,0-2.2,2.07,2.07,0,0,0-.7-.79,1.81,1.81,0,0,0-1-.29,1.75,1.75,0,0,0-1,.3,2.07,2.07,0,0,0-.7.79A2.4,2.4,0,0,0,9,4a2.34,2.34,0,0,0,.26,1.09,2.1,2.1,0,0,0,.7.8A1.82,1.82,0,0,0,11,6.18Z"/><path class="fdcf594d-9c7d-4110-a0ac-6baedb056df8" d="M16.24,7.91V.12H18v6.1h3.42V7.91Z"/><path class="b7a52f8c-0b2b-4170-b7cc-2f820ed2a14e" d="M26.32,8a3.52,3.52,0,0,1-1.89-.54A3.88,3.88,0,0,1,23.05,6a4.16,4.16,0,0,1-.5-2,4.15,4.15,0,0,1,.5-2A4,4,0,0,1,24.42.53,3.61,3.61,0,0,1,26.32,0a3.52,3.52,0,0,1,1.89.54A4,4,0,0,1,29.59,2a4,4,0,0,1,.51,2,4,4,0,0,1-.51,2,3.88,3.88,0,0,1-1.38,1.46A3.52,3.52,0,0,1,26.32,8Zm0-1.82a1.81,1.81,0,0,0,1-.29A2,2,0,0,0,28,5.1,2.26,2.26,0,0,0,28.26,4,2.26,2.26,0,0,0,28,2.9a2.07,2.07,0,0,0-.7-.79,1.81,1.81,0,0,0-1-.29,1.69,1.69,0,0,0-1,.3,2,2,0,0,0-.71.79A2.4,2.4,0,0,0,24.37,4a2.34,2.34,0,0,0,.26,1.09,2,2,0,0,0,.71.8A1.76,1.76,0,0,0,26.32,6.18Z"/><path class="bab89a16-f0b5-4fdf-a603-8110de8af120" d="M34.7,8a3.21,3.21,0,0,1-1.57-.39A2.91,2.91,0,0,1,32,6.54,2.86,2.86,0,0,1,31.59,5V.12H33.4v5a1,1,0,0,0,.37.8,1.39,1.39,0,0,0,.93.31,1.42,1.42,0,0,0,.95-.32A1,1,0,0,0,36,5.07V.12h1.81V5a2.78,2.78,0,0,1-.42,1.5,2.91,2.91,0,0,1-1.13,1.07A3.22,3.22,0,0,1,34.7,8Z"/><path class="b28b7957-2d59-4eab-99dc-91af631c51f7" d="M42.54,5h-.76V7.91H40V.12h3.08a2.27,2.27,0,0,1,1.24.36,2.73,2.73,0,0,1,.91.94,2.47,2.47,0,0,1,.33,1.23,2.2,2.2,0,0,1-.36,1.22,2.56,2.56,0,0,1-1,.87l1.91,3.17H44.22ZM41.78,3.4h1.27a.78.78,0,0,0,.57-.23.82.82,0,0,0,.23-.58A.77.77,0,0,0,43.59,2,.9.9,0,0,0,43,1.77H41.78Z"/></g></g></g></svg>