<svg xmlns="http://www.w3.org/2000/svg" xmlns:xlink="http://www.w3.org/1999/xlink" viewBox="0 0 109.64 8"><defs><style>.a9713d8e-c7fd-4e33-91c5-ef3f277c1c00{fill:url(#af612c1a-31c5-43cc-9860-9bb46a9b00ed);}.ebd454cb-3762-41b9-91bb-bfb89a676750{fill:url(#b8c7d995-02e3-4081-9786-d847268a9dfe);}.a6097f4e-12b6-438d-9cdc-a18b9d7c12db{fill:url(#b34a7d23-18d3-41ef-8354-9889bf030e9d);}</style><linearGradient id="af612c1a-31c5-43cc-9860-9bb46a9b00ed" x1="970.3" y1="-899.18" x2="2332.65" y2="-899.18" gradientTransform="matrix(0.16, 0, 0, -0.16, -155.26, -139.3)" gradientUnits="userSpaceOnUse"><stop offset="0" stop-color="#fedf1a"/><stop offset="0.08" stop-color="#fba658"/><stop offset="0.17" stop-color="#f6789c"/><stop offset="0.26" stop-color="#c86bd5"/><stop offset="0.36" stop-color="#9c88db"/><stop offset="0.46" stop-color="#ae9ee2"/><stop offset="0.56" stop-color="#5caee4"/><stop offset="0.65" stop-color="#19d2e3"/><stop offset="0.75" stop-color="#18ddd4"/><stop offset="0.76" stop-color="#2de4ba"/><stop offset="0.89" stop-color="#80efd5"/><stop offset="0.92" stop-color="#62fc6c"/><stop offset="1" stop-color="#62fc6c"/></linearGradient><linearGradient id="b8c7d995-02e3-4081-9786-d847268a9dfe" x1="970.3" y1="-899.26" x2="2332.65" y2="-899.26" xlink:href="#af612c1a-31c5-43cc-9860-9bb46a9b00ed"/><linearGradient id="b34a7d23-18d3-41ef-8354-9889bf030e9d" x1="970.3" y1="-899.56" x2="2332.65" y2="-899.56" xlink:href="#af612c1a-31c5-43cc-9860-9bb46a9b00ed"/></defs><g id="bda222f8-b2e6-44c7-a6da-d314918dbf07" data-name="Layer 2"><g id="ab0a24c7-af48-460b-a9d7-fdb8896bbc94" data-name="Layer 1"><g id="eb3cf128-999b-4d28-8c0f-61128410e46e" data-name="Custom copy copy"><path class="a9713d8e-c7fd-4e33-91c5-ef3f277c1c00" d="M4,8a3.86,3.86,0,0,1-2-.54A4.09,4.09,0,0,1,.54,6,3.87,3.87,0,0,1,0,4,3.87,3.87,0,0,1,.54,2,4.14,4.14,0,0,1,2,.54,3.82,3.82,0,0,1,4,0a3.1,3.1,0,0,1,1.5.38,3.06,3.06,0,0,1,1.13,1l-1,1.13a1.78,1.78,0,0,0-1.5-.68,2.19,2.19,0,0,0-1.15.3,2.12,2.12,0,0,0-.8.8,2.27,2.27,0,0,0,0,2.22,2.05,2.05,0,0,0,.8.8A2.13,2.13,0,0,0,4,6.21,2.29,2.29,0,0,0,4.9,6a1.88,1.88,0,0,0,.68-.5l1,1.16A3.09,3.09,0,0,1,4,8Z"/><path class="a9713d8e-c7fd-4e33-91c5-ef3f277c1c00" d="M11,8a3.51,3.51,0,0,1-1.88-.54A4,4,0,0,1,7.7,6a4.05,4.05,0,0,1-.5-2,4,4,0,0,1,.5-2A3.93,3.93,0,0,1,9.07.53,3.6,3.6,0,0,1,11,0a3.53,3.53,0,0,1,1.9.54A4,4,0,0,1,14.24,2a4,4,0,0,1,.51,2,4,4,0,0,1-.51,2,4,4,0,0,1-1.38,1.46A3.53,3.53,0,0,1,11,8Zm0-1.82a1.82,1.82,0,0,0,1-.29,2,2,0,0,0,.7-.79,2.46,2.46,0,0,0,0-2.2,2,2,0,0,0-.7-.79,1.82,1.82,0,0,0-1-.29,1.74,1.74,0,0,0-1,.3,2.07,2.07,0,0,0-.7.79,2.41,2.41,0,0,0,0,2.18,2.1,2.1,0,0,0,.7.8A1.81,1.81,0,0,0,11,6.18Z"/><path class="ebd454cb-3762-41b9-91bb-bfb89a676750" d="M21.12.12h1.81V7.91H21.48L18.05,3.37V7.91H16.24V.12h1.45l3.43,4.54Z"/><path class="a9713d8e-c7fd-4e33-91c5-ef3f277c1c00" d="M31.24,7s-.12.13-.35.31a3.6,3.6,0,0,1-1,.5A4.3,4.3,0,0,1,28.4,8a3.94,3.94,0,0,1-2-.54A4.06,4.06,0,0,1,24.93,6a3.86,3.86,0,0,1-.53-2,3.86,3.86,0,0,1,.53-2A4.06,4.06,0,0,1,26.38.54a3.83,3.83,0,0,1,2-.54,3.63,3.63,0,0,1,1.5.31,3.31,3.31,0,0,1,1.21.89L30,2.48a2.22,2.22,0,0,0-1.59-.69,2.08,2.08,0,0,0-1.09.3,2.17,2.17,0,0,0-.79.8,2.14,2.14,0,0,0-.3,1.1,2.53,2.53,0,0,0,.23,1,2.15,2.15,0,0,0,.77.85,2.6,2.6,0,0,0,1.37.34A3,3,0,0,0,29.61,6V4.93H27.9V3.34h3.34Z"/><path class="ebd454cb-3762-41b9-91bb-bfb89a676750" d="M35.09,5h-.77V7.91H32.51V.12h3.08a2.25,2.25,0,0,1,1.24.36,2.64,2.64,0,0,1,.91.94,2.46,2.46,0,0,1,.33,1.22,2.21,2.21,0,0,1-.36,1.23,2.56,2.56,0,0,1-1,.87l1.92,3.17H36.76ZM34.32,3.4h1.27a.78.78,0,0,0,.57-.23.82.82,0,0,0,.23-.58A.76.76,0,0,0,36.14,2a.92.92,0,0,0-.63-.23H34.32Z"/><path class="ebd454cb-3762-41b9-91bb-bfb89a676750" d="M44.24,7.91,43.82,6.8H41.1l-.42,1.11H38.77l3-7.79h1.3l3,7.79ZM41.72,5.15H43.2l-.74-2Z"/><path class="ebd454cb-3762-41b9-91bb-bfb89a676750" d="M52.78.12V2H50.22v6H48.44V2H45.87V.12Z"/><path class="a6097f4e-12b6-438d-9cdc-a18b9d7c12db" d="M57.13,8a3.25,3.25,0,0,1-1.58-.39,2.88,2.88,0,0,1-1.12-1.07A2.77,2.77,0,0,1,54,5V.12h1.8v5a1,1,0,0,0,.38.8,1.36,1.36,0,0,0,.93.31,1.39,1.39,0,0,0,.94-.32,1,1,0,0,0,.37-.79V.12h1.81V5a2.78,2.78,0,0,1-.42,1.5A2.84,2.84,0,0,1,58.7,7.61,3.21,3.21,0,0,1,57.13,8Z"/><path class="ebd454cb-3762-41b9-91bb-bfb89a676750" d="M62.39,7.91V.12h1.8v6.1h3.42V7.91Z"/><path class="ebd454cb-3762-41b9-91bb-bfb89a676750" d="M73.81,7.91,73.38,6.8H70.67l-.43,1.11h-1.9l3-7.79h1.3l3,7.79ZM71.29,5.15h1.48l-.74-2Z"/><path class="ebd454cb-3762-41b9-91bb-bfb89a676750" d="M82.35.12V2H79.78v6H78V2H75.44V.12Z"/><path class="ebd454cb-3762-41b9-91bb-bfb89a676750" d="M83.58,7.91V.12h1.77V7.91Z"/><path class="a9713d8e-c7fd-4e33-91c5-ef3f277c1c00" d="M90.58,8a3.51,3.51,0,0,1-1.88-.54A4,4,0,0,1,87.32,6a4.06,4.06,0,0,1-.51-2,4,4,0,0,1,.51-2A3.93,3.93,0,0,1,88.69.53,3.6,3.6,0,0,1,90.58,0a3.53,3.53,0,0,1,1.9.54A4,4,0,0,1,93.86,2a4,4,0,0,1,.51,2,4,4,0,0,1-.51,2,4,4,0,0,1-1.38,1.46A3.53,3.53,0,0,1,90.58,8Zm0-1.82a1.76,1.76,0,0,0,1-.29,2,2,0,0,0,.71-.79,2.46,2.46,0,0,0,0-2.2,2,2,0,0,0-.71-.79,1.76,1.76,0,0,0-1-.29,1.74,1.74,0,0,0-1,.3,2.07,2.07,0,0,0-.7.79A2.25,2.25,0,0,0,88.64,4a2.25,2.25,0,0,0,.26,1.09,2.1,2.1,0,0,0,.7.8A1.81,1.81,0,0,0,90.58,6.18Z"/><path class="ebd454cb-3762-41b9-91bb-bfb89a676750" d="M100.74.12h1.81V7.91H101.1L97.67,3.37V7.91H95.86V.12h1.45l3.43,4.54Z"/><path class="a9713d8e-c7fd-4e33-91c5-ef3f277c1c00" d="M106.85,8a4,4,0,0,1-1.68-.37A2.77,2.77,0,0,1,104,6.76l1-1.17a2.41,2.41,0,0,0,.82.49,3,3,0,0,0,1,.18,1.23,1.23,0,0,0,.7-.16.51.51,0,0,0,.25-.45.56.56,0,0,0-.29-.46q-.3-.18-.93-.48l-.37-.16a5,5,0,0,1-1.47-.95,1.74,1.74,0,0,1-.48-1.27,2.2,2.2,0,0,1,.35-1.21,2.36,2.36,0,0,1,1-.83A3.26,3.26,0,0,1,106.89,0a3.56,3.56,0,0,1,1.22.21,6,6,0,0,1,1.31.69l-.81,1.26a6,6,0,0,0-.75-.32A2.91,2.91,0,0,0,107,1.7a1.31,1.31,0,0,0-.69.14.47.47,0,0,0-.27.41.43.43,0,0,0,.19.37,3,3,0,0,0,.63.31l.32.14A6.54,6.54,0,0,1,109,4.17a2,2,0,0,1,.62,1.45,2.19,2.19,0,0,1-.37,1.22,2.39,2.39,0,0,1-1,.85A3.15,3.15,0,0,1,106.85,8Z"/></g></g></g></svg>