<svg xmlns="http://www.w3.org/2000/svg" xmlns:xlink="http://www.w3.org/1999/xlink" viewBox="0 0 54.41 8"><defs><style>.fb8a0180-1f50-474e-ad51-b8fdc72860b0{fill:url(#b4412869-12d5-4aaa-8a13-29130166ff1b);}.a40748bc-9af4-4b56-98b5-1a39a911d5c3{fill:url(#ac9b55e3-5aa3-4f01-a168-2fdff30c627d);}</style><linearGradient id="b4412869-12d5-4aaa-8a13-29130166ff1b" x1="972.97" y1="-359.72" x2="2335.32" y2="-359.72" gradientTransform="matrix(0.16, 0, 0, -0.16, -153.02, -53.33)" gradientUnits="userSpaceOnUse"><stop offset="0" stop-color="#fedf1a"/><stop offset="0.08" stop-color="#fba658"/><stop offset="0.17" stop-color="#f6789c"/><stop offset="0.26" stop-color="#c86bd5"/><stop offset="0.36" stop-color="#9c88db"/><stop offset="0.46" stop-color="#ae9ee2"/><stop offset="0.56" stop-color="#5caee4"/><stop offset="0.65" stop-color="#19d2e3"/><stop offset="0.75" stop-color="#18ddd4"/><stop offset="0.76" stop-color="#2de4ba"/><stop offset="0.89" stop-color="#80efd5"/><stop offset="0.92" stop-color="#62fc6c"/><stop offset="1" stop-color="#62fc6c"/></linearGradient><linearGradient id="ac9b55e3-5aa3-4f01-a168-2fdff30c627d" x1="972.97" y1="-359.81" x2="2335.32" y2="-359.81" xlink:href="#b4412869-12d5-4aaa-8a13-29130166ff1b"/></defs><g id="b4e87cb7-1c2b-478f-8d93-5de9d314af95" data-name="Layer 2"><g id="bdb6778e-b04d-4d7b-b170-5ee314854472" data-name="Layer 1"><g id="ac9f9aae-b57a-49d9-a925-873bb88f97b3" data-name="Custom"><path class="fb8a0180-1f50-474e-ad51-b8fdc72860b0" d="M4,8a3.86,3.86,0,0,1-2-.54A4,4,0,0,1,.54,6,3.87,3.87,0,0,1,0,4,3.87,3.87,0,0,1,.54,2,4.14,4.14,0,0,1,2,.54,3.82,3.82,0,0,1,4,0a3.21,3.21,0,0,1,1.5.38,3.06,3.06,0,0,1,1.13,1l-1,1.13A1.8,1.8,0,0,0,4.06,1.8a2.19,2.19,0,0,0-1.15.29,2.12,2.12,0,0,0-.8.8,2.27,2.27,0,0,0,0,2.22,2.05,2.05,0,0,0,.8.8A2.13,2.13,0,0,0,4,6.21,2.29,2.29,0,0,0,4.9,6a1.88,1.88,0,0,0,.68-.5l1,1.16A3.09,3.09,0,0,1,4,8Z"/><path class="fb8a0180-1f50-474e-ad51-b8fdc72860b0" d="M11,8a3.52,3.52,0,0,1-1.89-.54A3.88,3.88,0,0,1,7.7,6a4.05,4.05,0,0,1-.5-2A4,4,0,0,1,9.07.53,3.61,3.61,0,0,1,11,0a3.52,3.52,0,0,1,1.89.54A4,4,0,0,1,14.24,2a4,4,0,0,1,.51,2,4,4,0,0,1-.51,2,3.88,3.88,0,0,1-1.38,1.46A3.52,3.52,0,0,1,11,8Zm0-1.82a1.73,1.73,0,0,0,1-.29,2,2,0,0,0,.7-.78A2.45,2.45,0,0,0,12.91,4a2.38,2.38,0,0,0-.26-1.1,2.07,2.07,0,0,0-.7-.79,1.81,1.81,0,0,0-1-.29,1.75,1.75,0,0,0-1,.3,2.07,2.07,0,0,0-.7.79A2.4,2.4,0,0,0,9,4a2.34,2.34,0,0,0,.26,1.09,2.1,2.1,0,0,0,.7.8A1.82,1.82,0,0,0,11,6.18Z"/><path class="a40748bc-9af4-4b56-98b5-1a39a911d5c3" d="M21.12.12h1.81V7.91H21.48L18.05,3.37V7.91H16.24V.12H17.7l3.42,4.54Z"/><path class="a40748bc-9af4-4b56-98b5-1a39a911d5c3" d="M30,.12h1.81V7.91H30.31L26.88,3.37V7.91H25.07V.12h1.45L30,4.66Z"/><path class="a40748bc-9af4-4b56-98b5-1a39a911d5c3" d="M35.69,6.22h3.43V7.91H33.9V.12h5v1.7H35.69V3.19H38.5V4.76H35.69Z"/><path class="fb8a0180-1f50-474e-ad51-b8fdc72860b0" d="M44.19,8a3.86,3.86,0,0,1-2-.54A4,4,0,0,1,40.74,6a3.87,3.87,0,0,1-.54-2,3.87,3.87,0,0,1,.54-2A4.14,4.14,0,0,1,42.19.54a3.82,3.82,0,0,1,2-.54,3.21,3.21,0,0,1,1.5.38,3.06,3.06,0,0,1,1.13,1l-1,1.13a1.76,1.76,0,0,0-1.5-.67,2.19,2.19,0,0,0-1.15.29,2.12,2.12,0,0,0-.8.8,2.27,2.27,0,0,0,0,2.22,2.05,2.05,0,0,0,.8.8,2.13,2.13,0,0,0,1.12.3A2.29,2.29,0,0,0,45.1,6a1.8,1.8,0,0,0,.68-.5l1,1.16A3.09,3.09,0,0,1,44.19,8Z"/><path class="a40748bc-9af4-4b56-98b5-1a39a911d5c3" d="M54.41.12V2H51.85v6H50.07V2H47.51V.12Z"/></g></g></g></svg>