<svg version="1.2" baseProfile="tiny-ps" xmlns="http://www.w3.org/2000/svg" viewBox="0 0 264 131" width="264" height="131">
	<title>Asset 2-svg</title>
	<defs>
		<linearGradient id="grd1" gradientUnits="userSpaceOnUse"  x1="27.844" y1="1.841" x2="280.323" y2="154.608">
			<stop offset="0" stop-color="#000000"  />
			<stop offset="0.17" stop-color="#180e34"  />
			<stop offset="0.33" stop-color="#1a1036"  />
			<stop offset="0.52" stop-color="#180940"  />
			<stop offset="1" stop-color="#0e032c"  />
		</linearGradient>
	</defs>
	<style>
		tspan { white-space:pre }
		.shp0 { fill: #000000;stroke: #ffffff;stroke-linecap:round;stroke-linejoin:round;stroke-width: 1.59 } 
		.shp1 { fill: url(#grd1);stroke: #130227;stroke-linecap:round;stroke-linejoin:round;stroke-width: 1.59 } 
	</style>
	<g id="a7abad11-29c2-4f69-8289-92dbed4f1b6b">
		<g id="ece7fff1-9f20-47d9-9b93-03fb20150566">
			<g id="e3ac3b9a-6387-48ee-99a6-273a8e554f4b">
				<path id="Layer" class="shp0" d="M8.77 0.8L255.18 0.8C256.23 0.8 257.27 1.01 258.24 1.41C259.21 1.81 260.09 2.4 260.84 3.14C261.58 3.89 262.17 4.77 262.57 5.74C262.97 6.71 263.18 7.75 263.18 8.8L263.18 121.4C263.18 122.45 262.97 123.49 262.57 124.46C262.17 125.43 261.58 126.31 260.84 127.06C260.09 127.8 259.21 128.39 258.24 128.79C257.27 129.19 256.23 129.4 255.18 129.4L8.77 129.4C7.72 129.4 6.68 129.19 5.71 128.79C4.74 128.39 3.86 127.8 3.11 127.06C2.37 126.31 1.78 125.43 1.38 124.46C0.98 123.49 0.77 122.45 0.77 121.4L0.77 8.77C0.77 7.72 0.98 6.68 1.39 5.72C1.79 4.75 2.38 3.87 3.12 3.13C3.87 2.39 4.75 1.81 5.72 1.41C6.68 1.01 7.72 0.8 8.77 0.8L8.77 0.8Z" />
			</g>
			<g id="ad07a966-b64b-485b-9370-a284daf097bb">
				<path id="Layer" class="shp1" d="M8.77 0.8L255.18 0.8C256.23 0.8 257.27 1.01 258.24 1.41C259.21 1.81 260.09 2.4 260.84 3.14C261.58 3.89 262.17 4.77 262.57 5.74C262.97 6.71 263.18 7.75 263.18 8.8L263.18 121.4C263.18 122.45 262.97 123.49 262.57 124.46C262.17 125.43 261.58 126.31 260.84 127.06C260.09 127.8 259.21 128.39 258.24 128.79C257.27 129.19 256.23 129.4 255.18 129.4L8.77 129.4C7.72 129.4 6.68 129.19 5.71 128.79C4.74 128.39 3.86 127.8 3.11 127.06C2.37 126.31 1.78 125.43 1.38 124.46C0.98 123.49 0.77 122.45 0.77 121.4L0.77 8.77C0.77 7.72 0.98 6.68 1.39 5.72C1.79 4.75 2.38 3.87 3.12 3.13C3.87 2.39 4.75 1.81 5.72 1.41C6.68 1.01 7.72 0.8 8.77 0.8L8.77 0.8Z" />
			</g>
		</g>
	</g>
</svg>