<svg xmlns="http://www.w3.org/2000/svg" xmlns:xlink="http://www.w3.org/1999/xlink" viewBox="0 0 92.09 8"><defs><style>.f421c77d-546b-4be5-a320-186df308831c{fill:url(#ffab8ba5-347b-4876-bea2-89a9b7204a4f);}.f8d745fa-6881-4a5e-95c3-f8b6a6d0917a{fill:url(#a3078a73-e633-4165-8c8f-ae0f0bb1eb31);}.a3a93857-a40a-46b5-999d-27448ec7c22a{fill:url(#afaf5788-f37d-4b24-8f9e-63599d32058b);}.b15f4dc6-5d4d-4cde-a192-7ee107bf229b{fill:url(#eaf5efd0-120b-4669-9fce-40b52ec139be);}.bb9babad-254d-44f0-8779-bd857a6cd6c7{fill:url(#acb1f1bc-1f0d-4b54-b6c6-97164673a0e0);}.fe5c8737-c59d-4212-a5e0-320421b89357{fill:url(#ec2baa8b-1b7e-4ba4-b771-083a62ac21bf);}.b72e2a74-2192-4e19-ae81-319ee6de3bd5{fill:url(#bdfef181-9f8d-4b1d-9be0-7ecab0fdd97d);}.a02727cc-d63b-48df-819e-f8f866dcee37{fill:url(#ec32718e-1965-4dcd-90d2-6aadc6f78de9);}.be4625ea-f6b5-4002-9c88-918a76907824{fill:url(#e8a97c3f-d250-4982-ae24-e7422dfa4f0d);}.b2ffb1b1-a831-45cb-b729-d7c7344aa096{fill:url(#ad328b05-e254-49d4-83c8-b556373e50bf);}.b6b49b07-fac1-46ee-bd0e-0dacd22e8f21{fill:url(#fc5c2c41-1c2e-42b1-b1d8-787c6dc8b17c);}.bf61ccc2-85be-4c8a-bfee-b319e50e7033{fill:url(#b93767b9-24e1-4881-9192-4b668fac3511);}.a5093d96-892c-4354-9801-7cc74a509fc5{fill:url(#e15cc9f4-4026-45e5-9b71-1ecfbf13f202);}</style><linearGradient id="ffab8ba5-347b-4876-bea2-89a9b7204a4f" x1="974.3" y1="-497.29" x2="1569.25" y2="-522.53" gradientTransform="matrix(0.16, 0, 0, -0.16, -153.31, -75.34)" gradientUnits="userSpaceOnUse"><stop offset="0" stop-color="#fedf1a"/><stop offset="0.08" stop-color="#fba658"/><stop offset="0.17" stop-color="#f6789c"/><stop offset="0.26" stop-color="#c86bd5"/><stop offset="0.36" stop-color="#9c88db"/><stop offset="0.46" stop-color="#ae9ee2"/><stop offset="0.56" stop-color="#5caee4"/><stop offset="0.65" stop-color="#19d2e3"/><stop offset="0.75" stop-color="#18ddd4"/><stop offset="0.76" stop-color="#2de4ba"/><stop offset="0.89" stop-color="#80efd5"/><stop offset="0.92" stop-color="#62fc6c"/><stop offset="1" stop-color="#62fc6c"/></linearGradient><linearGradient id="a3078a73-e633-4165-8c8f-ae0f0bb1eb31" x1="974.38" y1="-495.4" x2="1569.33" y2="-520.65" xlink:href="#ffab8ba5-347b-4876-bea2-89a9b7204a4f"/><linearGradient id="afaf5788-f37d-4b24-8f9e-63599d32058b" x1="974.46" y1="-493.44" x2="1569.41" y2="-518.69" xlink:href="#ffab8ba5-347b-4876-bea2-89a9b7204a4f"/><linearGradient id="eaf5efd0-120b-4669-9fce-40b52ec139be" x1="974.55" y1="-491.38" x2="1569.5" y2="-516.63" xlink:href="#ffab8ba5-347b-4876-bea2-89a9b7204a4f"/><linearGradient id="acb1f1bc-1f0d-4b54-b6c6-97164673a0e0" x1="974.63" y1="-489.56" x2="1569.57" y2="-514.81" xlink:href="#ffab8ba5-347b-4876-bea2-89a9b7204a4f"/><linearGradient id="ec2baa8b-1b7e-4ba4-b771-083a62ac21bf" x1="974.73" y1="-487.17" x2="1569.68" y2="-512.41" xlink:href="#ffab8ba5-347b-4876-bea2-89a9b7204a4f"/><linearGradient id="bdfef181-9f8d-4b1d-9be0-7ecab0fdd97d" x1="974.81" y1="-485.28" x2="1569.76" y2="-510.53" xlink:href="#ffab8ba5-347b-4876-bea2-89a9b7204a4f"/><linearGradient id="ec32718e-1965-4dcd-90d2-6aadc6f78de9" x1="974.87" y1="-483.81" x2="1569.82" y2="-509.06" xlink:href="#ffab8ba5-347b-4876-bea2-89a9b7204a4f"/><linearGradient id="e8a97c3f-d250-4982-ae24-e7422dfa4f0d" x1="974.93" y1="-482.46" x2="1569.88" y2="-507.71" xlink:href="#ffab8ba5-347b-4876-bea2-89a9b7204a4f"/><linearGradient id="ad328b05-e254-49d4-83c8-b556373e50bf" x1="975.04" y1="-479.9" x2="1569.99" y2="-505.14" xlink:href="#ffab8ba5-347b-4876-bea2-89a9b7204a4f"/><linearGradient id="fc5c2c41-1c2e-42b1-b1d8-787c6dc8b17c" x1="975.08" y1="-478.75" x2="1570.03" y2="-504" xlink:href="#ffab8ba5-347b-4876-bea2-89a9b7204a4f"/><linearGradient id="b93767b9-24e1-4881-9192-4b668fac3511" x1="975.16" y1="-477.04" x2="1570.11" y2="-502.29" xlink:href="#ffab8ba5-347b-4876-bea2-89a9b7204a4f"/><linearGradient id="e15cc9f4-4026-45e5-9b71-1ecfbf13f202" x1="975.25" y1="-474.84" x2="1570.2" y2="-500.08" xlink:href="#ffab8ba5-347b-4876-bea2-89a9b7204a4f"/></defs><g id="f874ca9e-d9c8-4129-a882-f52d839e6c2c" data-name="Layer 2"><g id="a7046d4a-f809-4aa9-9374-7956802ecc3e" data-name="Layer 1"><g id="b7aa817a-1783-46b5-bb78-adfc67731639" data-name="Layer 1"><path class="f421c77d-546b-4be5-a320-186df308831c" d="M4,8a3.86,3.86,0,0,1-2-.54A4,4,0,0,1,.54,6,3.87,3.87,0,0,1,0,4,3.87,3.87,0,0,1,.54,2,4.14,4.14,0,0,1,2,.54,3.82,3.82,0,0,1,4,0a3.21,3.21,0,0,1,1.5.38,3.06,3.06,0,0,1,1.13,1l-1,1.13a1.77,1.77,0,0,0-1.5-.67,2.19,2.19,0,0,0-1.15.29,2.12,2.12,0,0,0-.8.8,2.27,2.27,0,0,0,0,2.22,2.05,2.05,0,0,0,.8.8A2.13,2.13,0,0,0,4,6.21,2.29,2.29,0,0,0,4.9,6a1.88,1.88,0,0,0,.68-.5l1,1.16A3.09,3.09,0,0,1,4,8Z"/><path class="f8d745fa-6881-4a5e-95c3-f8b6a6d0917a" d="M11,8A3.25,3.25,0,0,1,9.4,7.61,2.88,2.88,0,0,1,8.28,6.54,2.77,2.77,0,0,1,7.87,5V.12H9.68v5a1,1,0,0,0,.37.8,1.36,1.36,0,0,0,.93.31,1.39,1.39,0,0,0,.94-.32,1,1,0,0,0,.37-.79V.12H14.1V5a2.86,2.86,0,0,1-.41,1.5,2.94,2.94,0,0,1-1.14,1.07A3.21,3.21,0,0,1,11,8Z"/><path class="a3a93857-a40a-46b5-999d-27448ec7c22a" d="M18.41,8a3.89,3.89,0,0,1-1.68-.37,2.72,2.72,0,0,1-1.16-.87l1-1.17a2.31,2.31,0,0,0,.83.49,3,3,0,0,0,1,.18A1.27,1.27,0,0,0,19,6.1a.52.52,0,0,0,.24-.45A.54.54,0,0,0,19,5.19c-.2-.12-.51-.28-.92-.48l-.38-.16a5.25,5.25,0,0,1-1.47-.95,1.78,1.78,0,0,1-.47-1.27,2.19,2.19,0,0,1,.34-1.21,2.36,2.36,0,0,1,1-.83A3.3,3.3,0,0,1,18.45,0a3.54,3.54,0,0,1,1.21.21A5.77,5.77,0,0,1,21,.9l-.81,1.27a4.88,4.88,0,0,0-.74-.33,3.05,3.05,0,0,0-.84-.14,1.31,1.31,0,0,0-.69.14.46.46,0,0,0-.26.41.45.45,0,0,0,.18.37,3.17,3.17,0,0,0,.64.31l.31.14a6.63,6.63,0,0,1,1.81,1.1,2,2,0,0,1,.62,1.45,2.18,2.18,0,0,1-.36,1.22,2.62,2.62,0,0,1-1,.86A3.31,3.31,0,0,1,18.41,8Z"/><path class="b15f4dc6-5d4d-4cde-a192-7ee107bf229b" d="M28.69.12V2H26.12v6H24.34V2H21.78V.12Z"/><path class="bb9babad-254d-44f0-8779-bd857a6cd6c7" d="M33,8a3.52,3.52,0,0,1-1.89-.54A3.78,3.78,0,0,1,29.76,6a4.06,4.06,0,0,1-.51-2,4,4,0,0,1,.51-2A3.85,3.85,0,0,1,31.13.53a3.62,3.62,0,0,1,3.79,0A3.85,3.85,0,0,1,36.29,2a4,4,0,0,1,.51,2,4,4,0,0,1-.51,2,3.78,3.78,0,0,1-1.37,1.46A3.55,3.55,0,0,1,33,8Zm0-1.82a1.73,1.73,0,0,0,1-.29,2,2,0,0,0,.7-.78A2.33,2.33,0,0,0,35,4a2.26,2.26,0,0,0-.26-1.1,2,2,0,0,0-.7-.79,1.81,1.81,0,0,0-1-.29,1.72,1.72,0,0,0-1,.3,2.09,2.09,0,0,0-.71.79A2.4,2.4,0,0,0,31.07,4a2.34,2.34,0,0,0,.26,1.09,2.12,2.12,0,0,0,.71.8A1.79,1.79,0,0,0,33,6.18Z"/><path class="fe5c8737-c59d-4212-a5e0-320421b89357" d="M45,.12h1.41V7.91H44.63l0-4.52L42.89,5.83h-1L40.08,3.37V7.91h-1.8V.12h1.43l2.63,3.65Z"/><path class="b72e2a74-2192-4e19-ae81-319ee6de3bd5" d="M48.56,7.91V.12h1.77V7.91Z"/><path class="a02727cc-d63b-48df-819e-f8f866dcee37" d="M54.63,8A4,4,0,0,1,53,7.63a2.68,2.68,0,0,1-1.15-.87l1-1.17a2.36,2.36,0,0,0,.84.49,2.9,2.9,0,0,0,1,.18,1.23,1.23,0,0,0,.7-.16.51.51,0,0,0,.25-.45.56.56,0,0,0-.29-.46q-.3-.18-.93-.48l-.37-.16a5,5,0,0,1-1.47-.95A1.74,1.74,0,0,1,52,2.33a2.2,2.2,0,0,1,.35-1.21,2.24,2.24,0,0,1,1-.83A3.26,3.26,0,0,1,54.67,0a3.6,3.6,0,0,1,1.22.21A6,6,0,0,1,57.2.9l-.81,1.27a5.41,5.41,0,0,0-.75-.33,2.91,2.91,0,0,0-.83-.14,1.31,1.31,0,0,0-.69.14.47.47,0,0,0-.27.41.43.43,0,0,0,.19.37,3,3,0,0,0,.63.31l.32.14a6.79,6.79,0,0,1,1.81,1.1,2,2,0,0,1,.61,1.45,2.18,2.18,0,0,1-.36,1.22,2.48,2.48,0,0,1-1,.86A3.28,3.28,0,0,1,54.63,8Z"/><path class="be4625ea-f6b5-4002-9c88-918a76907824" d="M63.35,7.91,62.92,6.8H60.21l-.42,1.11H57.88l3-7.79h1.31l3,7.79ZM60.83,5.15h1.48l-.74-2Z"/><path class="b2ffb1b1-a831-45cb-b729-d7c7344aa096" d="M71.89.12V2H69.33v6H67.54V2H65V.12Z"/><path class="b6b49b07-fac1-46ee-bd0e-0dacd22e8f21" d="M73.12,7.91V.12h1.77V7.91Z"/><path class="bf61ccc2-85be-4c8a-bfee-b319e50e7033" d="M80.13,8a3.52,3.52,0,0,1-1.89-.54A3.88,3.88,0,0,1,76.86,6a4.16,4.16,0,0,1-.5-2,4.15,4.15,0,0,1,.5-2A4,4,0,0,1,78.24.53,3.62,3.62,0,0,1,82,.54,3.93,3.93,0,0,1,83.4,2a4,4,0,0,1,.51,2,4,4,0,0,1-.51,2A3.85,3.85,0,0,1,82,7.46,3.55,3.55,0,0,1,80.13,8Zm0-1.82a1.73,1.73,0,0,0,1-.29,2,2,0,0,0,.7-.78A2.33,2.33,0,0,0,82.07,4a2.26,2.26,0,0,0-.26-1.1,2.07,2.07,0,0,0-.7-.79,1.81,1.81,0,0,0-1-.29,1.69,1.69,0,0,0-1,.3,2,2,0,0,0-.71.79A2.4,2.4,0,0,0,78.18,4a2.34,2.34,0,0,0,.26,1.09,2,2,0,0,0,.71.8A1.76,1.76,0,0,0,80.13,6.18Z"/><path class="a5093d96-892c-4354-9801-7cc74a509fc5" d="M90.28.12h1.81V7.91H90.64L87.21,3.37V7.91H85.4V.12h1.46l3.42,4.54Z"/></g></g></g></svg>