<svg xmlns="http://www.w3.org/2000/svg" xmlns:xlink="http://www.w3.org/1999/xlink" viewBox="0 0 52.55 7.79"><defs><style>.bf60d69d-d49a-4ce3-acb3-49429a938047{fill:url(#e3fcd538-ce45-4671-bd17-cbd2639395d1);}.a35b3eec-ca1b-43e0-8885-e34ce28b7d1e{fill:url(#bd0d096d-4592-47bd-bda5-851fa06dd22f);}.a23d4836-b278-42b5-8abb-76fb5ad6af26{fill:url(#f3dbd78f-e9b7-4801-b071-48884fcdeef5);}.fe68e20c-8f96-49a5-964b-ffd0a7084463{fill:url(#e6db93a5-7c78-46b0-8384-59cb25ae705f);}.b84e742b-56c3-42ef-9b81-40f8621ba679{fill:url(#ba351298-a6ec-436b-b076-ab3748308537);}.bd7ba84a-bfd1-4004-a1f7-6cd89fba644f{fill:url(#e3acfaf0-7a83-4938-a140-c0b2e5ac5056);}.e3b53c10-7c2d-4a32-a1aa-57b074570f2e{fill:url(#e29ef4b0-f527-464a-bd48-94173545ea04);}.bb03a54a-9863-463b-950f-d34a647840b0{fill:url(#a59eb965-68b2-409d-84ec-08e4594dcf41);}</style><linearGradient id="e3fcd538-ce45-4671-bd17-cbd2639395d1" x1="969.62" y1="-629.58" x2="1210.45" y2="-630.19" gradientTransform="matrix(0.16, 0, 0, -0.16, -155.68, -96.45)" gradientUnits="userSpaceOnUse"><stop offset="0" stop-color="#fedf1a"/><stop offset="0.08" stop-color="#fba658"/><stop offset="0.17" stop-color="#f6789c"/><stop offset="0.26" stop-color="#c86bd5"/><stop offset="0.36" stop-color="#9c88db"/><stop offset="0.46" stop-color="#ae9ee2"/><stop offset="0.56" stop-color="#5caee4"/><stop offset="0.65" stop-color="#19d2e3"/><stop offset="0.75" stop-color="#18ddd4"/><stop offset="0.76" stop-color="#2de4ba"/><stop offset="0.89" stop-color="#80efd5"/><stop offset="0.92" stop-color="#62fc6c"/><stop offset="1" stop-color="#62fc6c"/></linearGradient><linearGradient id="bd0d096d-4592-47bd-bda5-851fa06dd22f" x1="969.62" y1="-629.51" x2="1210.45" y2="-630.12" xlink:href="#e3fcd538-ce45-4671-bd17-cbd2639395d1"/><linearGradient id="f3dbd78f-e9b7-4801-b071-48884fcdeef5" x1="969.62" y1="-629.37" x2="1210.45" y2="-629.98" xlink:href="#e3fcd538-ce45-4671-bd17-cbd2639395d1"/><linearGradient id="e6db93a5-7c78-46b0-8384-59cb25ae705f" x1="969.62" y1="-629.24" x2="1210.45" y2="-629.85" xlink:href="#e3fcd538-ce45-4671-bd17-cbd2639395d1"/><linearGradient id="ba351298-a6ec-436b-b076-ab3748308537" x1="969.62" y1="-629.09" x2="1210.45" y2="-629.71" xlink:href="#e3fcd538-ce45-4671-bd17-cbd2639395d1"/><linearGradient id="e3acfaf0-7a83-4938-a140-c0b2e5ac5056" x1="969.62" y1="-629.02" x2="1210.45" y2="-629.64" xlink:href="#e3fcd538-ce45-4671-bd17-cbd2639395d1"/><linearGradient id="e29ef4b0-f527-464a-bd48-94173545ea04" x1="969.62" y1="-628.91" x2="1210.45" y2="-629.53" xlink:href="#e3fcd538-ce45-4671-bd17-cbd2639395d1"/><linearGradient id="a59eb965-68b2-409d-84ec-08e4594dcf41" x1="969.62" y1="-628.79" x2="1210.45" y2="-629.4" xlink:href="#e3fcd538-ce45-4671-bd17-cbd2639395d1"/></defs><g id="bc2478df-571c-4f00-b0ea-01be5635545a" data-name="Layer 2"><g id="b2e3ff20-6911-40cf-8bc0-3b7d5cf17a18" data-name="Layer 1"><g id="bbd6478d-2f09-4fab-a244-4cfa9562f464" data-name="Identity"><path class="bf60d69d-d49a-4ce3-acb3-49429a938047" d="M0,7.79V0H1.77V7.79Z"/><path class="a35b3eec-ca1b-43e0-8885-e34ce28b7d1e" d="M6.3,0A3.85,3.85,0,0,1,8.24.51a3.94,3.94,0,0,1,1.41,1.4,3.7,3.7,0,0,1,.52,1.93,3.91,3.91,0,0,1-.53,2A4.17,4.17,0,0,1,8.22,7.25a3.55,3.55,0,0,1-1.87.54H3.91V0ZM6.21,6a2.27,2.27,0,0,0,1-.26,2.11,2.11,0,0,0,.8-.77,2.09,2.09,0,0,0,.3-1.12,1.76,1.76,0,0,0-.68-1.47A2.77,2.77,0,0,0,6,1.82H5.72V6Z"/><path class="a23d4836-b278-42b5-8abb-76fb5ad6af26" d="M13.49,6.1h3.42V7.79H11.69V0h5V1.7H13.49V3.07H16.3V4.63H13.49Z"/><path class="fe68e20c-8f96-49a5-964b-ffd0a7084463" d="M23.55,0h1.81V7.79H23.9L20.48,3.25V7.79H18.67V0h1.45l3.43,4.54Z"/><path class="b84e742b-56c3-42ef-9b81-40f8621ba679" d="M33.5,0V1.82H30.93v6H29.15v-6H26.59V0Z"/><path class="bd7ba84a-bfd1-4004-a1f7-6cd89fba644f" d="M34.73,7.79V0H36.5V7.79Z"/><path class="e3b53c10-7c2d-4a32-a1aa-57b074570f2e" d="M44.64,0V1.82H42.08v6H40.3v-6H37.73V0Z"/><path class="bb03a54a-9863-463b-950f-d34a647840b0" d="M52.55,0l-3,4.69v3.1h-1.8V4.67L44.85,0H47l1.69,3,1.7-3Z"/></g></g></g></svg>