<svg xmlns="http://www.w3.org/2000/svg" xmlns:xlink="http://www.w3.org/1999/xlink" viewBox="0 0 87.53 8"><defs><style>.a046c242-2cbc-4ea9-b0c3-44ce8c556118{fill:url(#b8ea2faf-93ba-4447-a734-90e05bbe7ec9);}.a1c38a3e-29d3-4b7c-b992-b16a5251b7ab{fill:url(#f9395bca-c623-409c-bc7c-feab61ee14f0);}.be445ab5-a8f7-4994-8410-6420f48222e9{fill:url(#b7e7fd4f-f499-40b9-99fd-b5acb1bf94d8);}.a82b8ee0-2c17-4c8c-9eac-2c6d56f8dcbf{fill:url(#ac046ac8-4672-4c76-943c-a1bb72a12f3e);}</style><linearGradient id="b8ea2faf-93ba-4447-a734-90e05bbe7ec9" x1="968.96" y1="-1028.53" x2="2331.31" y2="-1028.53" gradientTransform="matrix(0.16, 0, 0, -0.16, -156.39, -159.91)" gradientUnits="userSpaceOnUse"><stop offset="0" stop-color="#fedf1a"/><stop offset="0.08" stop-color="#fba658"/><stop offset="0.17" stop-color="#f6789c"/><stop offset="0.26" stop-color="#c86bd5"/><stop offset="0.36" stop-color="#9c88db"/><stop offset="0.46" stop-color="#ae9ee2"/><stop offset="0.56" stop-color="#5caee4"/><stop offset="0.65" stop-color="#19d2e3"/><stop offset="0.75" stop-color="#18ddd4"/><stop offset="0.76" stop-color="#2de4ba"/><stop offset="0.89" stop-color="#80efd5"/><stop offset="0.92" stop-color="#62fc6c"/><stop offset="1" stop-color="#62fc6c"/></linearGradient><linearGradient id="f9395bca-c623-409c-bc7c-feab61ee14f0" x1="968.96" y1="-1028.83" x2="2331.31" y2="-1028.83" xlink:href="#b8ea2faf-93ba-4447-a734-90e05bbe7ec9"/><linearGradient id="b7e7fd4f-f499-40b9-99fd-b5acb1bf94d8" x1="968.96" y1="-1028.49" x2="2331.31" y2="-1028.49" xlink:href="#b8ea2faf-93ba-4447-a734-90e05bbe7ec9"/><linearGradient id="ac046ac8-4672-4c76-943c-a1bb72a12f3e" x1="968.96" y1="-1028.45" x2="2331.31" y2="-1028.45" xlink:href="#b8ea2faf-93ba-4447-a734-90e05bbe7ec9"/></defs><g id="a9ba39cc-99c8-4b75-9af0-e1e1fe02b55d" data-name="Layer 2"><g id="ae4cf0bf-0c8d-41d7-ba85-804096a6f7ed" data-name="Layer 1"><g id="bb99e4fe-6e9e-4522-8109-9ecb8f76bf0e" data-name="Custom copy copy copy"><path class="a046c242-2cbc-4ea9-b0c3-44ce8c556118" d="M4.66,7.91,2.3,4.81l-.52.51V7.91H0V.12H1.78V2.8L4.44.19H7L3.62,3.52,7,7.91Z"/><path class="a046c242-2cbc-4ea9-b0c3-44ce8c556118" d="M9.94,6.22h3.42V7.91H8.14V.12h5v1.7H9.94V3.19h2.81V4.76H9.94Z"/><path class="a046c242-2cbc-4ea9-b0c3-44ce8c556118" d="M16.91,6.22h3.43V7.91H15.12V.12h5v1.7H16.91V3.19h2.81V4.76H16.91Z"/><path class="a046c242-2cbc-4ea9-b0c3-44ce8c556118" d="M25.18.12a2.27,2.27,0,0,1,1.24.36,2.62,2.62,0,0,1,.9.94,2.38,2.38,0,0,1,.34,1.23,2.27,2.27,0,0,1-.35,1.21,2.43,2.43,0,0,1-.93.87A2.61,2.61,0,0,1,25.12,5H23.9V7.91H22.09V.12Zm0,3.28a.78.78,0,0,0,.57-.23A.81.81,0,0,0,26,2.59.76.76,0,0,0,25.72,2a.91.91,0,0,0-.62-.23H23.9V3.4Z"/><path class="a046c242-2cbc-4ea9-b0c3-44ce8c556118" d="M36,.12a2.25,2.25,0,0,1,1.24.36,2.64,2.64,0,0,1,.91.94,2.47,2.47,0,0,1,.33,1.23,2.26,2.26,0,0,1-.34,1.21,2.53,2.53,0,0,1-.94.87A2.57,2.57,0,0,1,36,5H34.76V7.91H33V.12ZM36,3.4a.78.78,0,0,0,.57-.23.82.82,0,0,0,.23-.58A.77.77,0,0,0,36.57,2,.88.88,0,0,0,36,1.77H34.76V3.4Z"/><path class="a1c38a3e-29d3-4b7c-b992-b16a5251b7ab" d="M43.15,8a3.25,3.25,0,0,1-1.58-.39,2.88,2.88,0,0,1-1.12-1.07A2.77,2.77,0,0,1,40,5V.12h1.81v5a1,1,0,0,0,.37.8,1.36,1.36,0,0,0,.93.31,1.39,1.39,0,0,0,.94-.32,1,1,0,0,0,.37-.79V.12h1.81V5a2.86,2.86,0,0,1-.41,1.5,2.94,2.94,0,0,1-1.14,1.07A3.21,3.21,0,0,1,43.15,8Z"/><path class="be445ab5-a8f7-4994-8410-6420f48222e9" d="M53.8.11V1.73L49.93,6.08h3.84V7.91H47.51V6.29L51.37,2H47.56V.11Z"/><path class="be445ab5-a8f7-4994-8410-6420f48222e9" d="M60.42.11V1.73L56.55,6.08h3.84V7.91H54.13V6.29L58,2H54.18V.11Z"/><path class="a046c242-2cbc-4ea9-b0c3-44ce8c556118" d="M61.65,7.91V.12h1.8v6.1h3.42V7.91Z"/><path class="a046c242-2cbc-4ea9-b0c3-44ce8c556118" d="M68.63,7.91V.12H70.4V7.91Z"/><path class="a046c242-2cbc-4ea9-b0c3-44ce8c556118" d="M77.41.12h1.81V7.91H77.77L74.34,3.37V7.91H72.53V.12H74l3.42,4.54Z"/><path class="a82b8ee0-2c17-4c8c-9eac-2c6d56f8dcbf" d="M87.53,7s-.12.13-.34.31a3.55,3.55,0,0,1-1,.5A4.3,4.3,0,0,1,84.69,8a3.88,3.88,0,0,1-2-.54,4,4,0,0,1-2-3.46,4,4,0,0,1,.53-2A4.06,4.06,0,0,1,82.67.54a3.83,3.83,0,0,1,2-.54,3.63,3.63,0,0,1,1.5.31,3.15,3.15,0,0,1,1.21.9L86.25,2.48a2.21,2.21,0,0,0-1.59-.68,2.1,2.1,0,0,0-1.09.29,2.24,2.24,0,0,0-.79.8,2.14,2.14,0,0,0-.3,1.1,2.39,2.39,0,0,0,.24,1,2,2,0,0,0,.77.85,2.55,2.55,0,0,0,1.37.34,3,3,0,0,0,1-.18V4.93H84.2V3.34h3.33Z"/></g></g></g></svg>