<svg xmlns="http://www.w3.org/2000/svg" xmlns:xlink="http://www.w3.org/1999/xlink" viewBox="0 0 245.92 239.97"><defs><style>.b11e48e9-a619-4c21-99e1-bbb831962eb0{fill:url(#b8484d43-ae5a-448b-989d-5a243d55b86a);}.b38f52d5-2405-48d1-8e67-0b7c44d86d34{stroke:#141414;stroke-miterlimit:2.43;stroke-width:0.61px;}</style><linearGradient id="b8484d43-ae5a-448b-989d-5a243d55b86a" x1="-117.6" y1="288.13" x2="287.44" y2="288.13" gradientTransform="matrix(0.61, 0, 0, -0.61, 71.4, 294.92)" gradientUnits="userSpaceOnUse"><stop offset="0" stop-color="#fedf1a"/><stop offset="0.15" stop-color="#fba658"/><stop offset="0.23" stop-color="#f6789c"/><stop offset="0.29" stop-color="#c86bd5"/><stop offset="0.39" stop-color="#9c88db"/><stop offset="0.49" stop-color="#ae9ee2"/><stop offset="0.56" stop-color="#5caee4"/><stop offset="0.65" stop-color="#19d2e3"/><stop offset="0.75" stop-color="#18ddd4"/><stop offset="0.84" stop-color="#2de4ba"/><stop offset="0.89" stop-color="#80efd5"/><stop offset="0.95" stop-color="#62fc6c"/><stop offset="1" stop-color="#62fc6c"/></linearGradient></defs><g id="b8016d9b-a584-4dba-9be0-ebb45be5d057" data-name="Layer 2"><g id="a0f5d51d-ecfd-4c89-9b7b-f23f89eb4e77" data-name="Layer 1"><g id="fbad2a6b-d657-4a1e-b272-a2bebd62aece" data-name="Layer 5"><path class="b11e48e9-a619-4c21-99e1-bbb831962eb0" d="M6.66,153H17.92a6.49,6.49,0,0,1,5.52,3.05,17,17,0,0,0,14.92,8,17.32,17.32,0,1,0,0-34.64,18.57,18.57,0,0,0-15.07,8.18,6.48,6.48,0,0,1-5.37,2.81H6.66A6.56,6.56,0,0,1,0,134.13V60.43a6.56,6.56,0,0,1,6.66-6.3H76V53A30.06,30.06,0,0,1,64.88,29.92C64.88,13.42,78.66,0,95.54,0s30.52,13.42,30.52,29.92a29.34,29.34,0,0,1-11.37,23.26v1h69.16a6.19,6.19,0,0,1,6.23,6.3v67.41h1.59a31.63,31.63,0,0,1,23.65-11c16.87,0,30.6,13.43,30.6,29.94s-13.73,29.89-30.6,29.89a30.36,30.36,0,0,1-23.8-11.05h-1.44v68a6.19,6.19,0,0,1-6.23,6.3H108.46a6.56,6.56,0,0,1-6.66-6.3V222.88a6.39,6.39,0,0,1,3.22-5.4,16.53,16.53,0,0,0,8.23-14.58,17.7,17.7,0,0,0-35.39,0,17.85,17.85,0,0,0,8.28,14.73,6.17,6.17,0,0,1,2.78,5.25v10.79a6.19,6.19,0,0,1-6.23,6.3h-76A6.56,6.56,0,0,1,0,233.67V159.33A6.56,6.56,0,0,1,6.66,153Z"/><path class="b38f52d5-2405-48d1-8e67-0b7c44d86d34" d="M12.89,227.37H76V226A30,30,0,0,1,64.88,202.9c0-16.5,13.78-29.93,30.66-29.93s30.52,13.43,30.52,29.93a29.37,29.37,0,0,1-11.37,23.26v1.21h62.5v-68a6.56,6.56,0,0,1,6.66-6.3h11a6.49,6.49,0,0,1,5.52,3.05,17,17,0,0,0,14.92,8,17.32,17.32,0,1,0,0-34.63,18.54,18.54,0,0,0-15.07,8.17,6.49,6.49,0,0,1-5.37,2.82h-11a6.57,6.57,0,0,1-6.66-6.3V66.73H108.46a6.56,6.56,0,0,1-6.66-6.3V49.9A6.38,6.38,0,0,1,105,44.51a16.54,16.54,0,0,0,8.23-14.59,17.7,17.7,0,0,0-35.39,0,17.87,17.87,0,0,0,8.28,14.74,6.14,6.14,0,0,1,2.78,5.24V60.43a6.19,6.19,0,0,1-6.23,6.3H12.89v61.1h1.82a31.62,31.62,0,0,1,23.65-11c16.87,0,30.6,13.43,30.6,29.94s-13.73,29.89-30.6,29.89a30.33,30.33,0,0,1-23.79-11.05H12.89v61.74Z"/></g></g></g></svg>