<svg xmlns="http://www.w3.org/2000/svg" xmlns:xlink="http://www.w3.org/1999/xlink" viewBox="0 0 47.6 8"><defs><style>.bdfcc364-9b78-48e1-b443-17f973492e34{fill:url(#b3deae57-7acf-41c2-a7e1-15c0f39535c0);}.baf40823-2215-42ba-81f5-a3732007b624{fill:url(#b3d5d3d6-29d1-4c9c-9788-9b6d63901545);}.fd51f7d7-b1a7-45a7-a33c-ad734426b92f{fill:url(#f97392c8-7156-43ba-8118-7214cb6564c2);}.a2f31b66-e0cd-4f9b-8c1a-8eeaa0664466{fill:url(#b05e2d1a-540b-4860-bb1f-10416eabe80c);}.a012e65b-6e25-4eb4-bda0-9bab66b26e46{fill:url(#af6fe07c-7433-4802-9ed3-b2e08bfd93db);}.b4a6696f-8995-4778-9c28-f17abf173342{fill:url(#f35bb199-4cfc-4320-a7b7-c10d104f5a46);}.e6acd901-0be8-4cd7-a566-c1107e0065d7{fill:url(#e89e2597-068f-439b-a4f8-dc5d1453f448);}</style><linearGradient id="b3deae57-7acf-41c2-a7e1-15c0f39535c0" x1="975.95" y1="-203.62" x2="1259.89" y2="-207.32" gradientTransform="matrix(0.16, 0, 0, -0.16, -153.71, -28.43)" gradientUnits="userSpaceOnUse"><stop offset="0" stop-color="#fedf1a"/><stop offset="0.08" stop-color="#fba658"/><stop offset="0.17" stop-color="#f6789c"/><stop offset="0.26" stop-color="#c86bd5"/><stop offset="0.36" stop-color="#9c88db"/><stop offset="0.46" stop-color="#ae9ee2"/><stop offset="0.56" stop-color="#5caee4"/><stop offset="0.65" stop-color="#19d2e3"/><stop offset="0.75" stop-color="#18ddd4"/><stop offset="0.76" stop-color="#2de4ba"/><stop offset="0.89" stop-color="#80efd5"/><stop offset="0.92" stop-color="#62fc6c"/><stop offset="1" stop-color="#62fc6c"/></linearGradient><linearGradient id="b3d5d3d6-29d1-4c9c-9788-9b6d63901545" x1="975.96" y1="-203.09" x2="1259.9" y2="-206.78" xlink:href="#b3deae57-7acf-41c2-a7e1-15c0f39535c0"/><linearGradient id="f97392c8-7156-43ba-8118-7214cb6564c2" x1="975.97" y1="-202.26" x2="1259.91" y2="-205.96" xlink:href="#b3deae57-7acf-41c2-a7e1-15c0f39535c0"/><linearGradient id="b05e2d1a-540b-4860-bb1f-10416eabe80c" x1="975.97" y1="-201.72" x2="1259.91" y2="-205.41" xlink:href="#b3deae57-7acf-41c2-a7e1-15c0f39535c0"/><linearGradient id="af6fe07c-7433-4802-9ed3-b2e08bfd93db" x1="975.98" y1="-201.33" x2="1259.92" y2="-205.03" xlink:href="#b3deae57-7acf-41c2-a7e1-15c0f39535c0"/><linearGradient id="f35bb199-4cfc-4320-a7b7-c10d104f5a46" x1="975.99" y1="-200.63" x2="1259.93" y2="-204.33" xlink:href="#b3deae57-7acf-41c2-a7e1-15c0f39535c0"/><linearGradient id="e89e2597-068f-439b-a4f8-dc5d1453f448" x1="976" y1="-200" x2="1259.94" y2="-203.7" xlink:href="#b3deae57-7acf-41c2-a7e1-15c0f39535c0"/></defs><g id="e4dc0537-26a1-4c54-980d-09f64c4c2e39" data-name="Layer 2"><g id="baf987d6-6f50-4730-b847-948385132e45" data-name="Layer 1"><g id="b8676d16-e955-45c1-81fa-275ae78fbea7" data-name="Puzzle"><path class="bdfcc364-9b78-48e1-b443-17f973492e34" d="M3.08.12A2.3,2.3,0,0,1,4.33.48a2.7,2.7,0,0,1,.9.94,2.48,2.48,0,0,1,.34,1.23,2.27,2.27,0,0,1-.35,1.21A2.58,2.58,0,0,1,3,5H1.81V7.91H0V.12Zm0,3.28a.78.78,0,0,0,.57-.23.82.82,0,0,0,.23-.58A.8.8,0,0,0,3.63,2,.92.92,0,0,0,3,1.77H1.81V3.4Z"/><path class="baf40823-2215-42ba-81f5-a3732007b624" d="M10.2,8a3.25,3.25,0,0,1-1.58-.39A2.88,2.88,0,0,1,7.5,6.54,2.77,2.77,0,0,1,7.09,5V.12H8.9v5a1,1,0,0,0,.37.8,1.36,1.36,0,0,0,.93.31,1.39,1.39,0,0,0,.94-.32,1,1,0,0,0,.37-.79V.12h1.81V5a2.78,2.78,0,0,1-.42,1.5,2.84,2.84,0,0,1-1.13,1.07A3.21,3.21,0,0,1,10.2,8Z"/><path class="fd51f7d7-b1a7-45a7-a33c-ad734426b92f" d="M20.85.11V1.73L17,6.09h3.84V7.91H14.56V6.29L18.42,2H14.61V.11Z"/><path class="a2f31b66-e0cd-4f9b-8c1a-8eeaa0664466" d="M27.47.11V1.73L23.6,6.09h3.84V7.91H21.18V6.29L25,2H21.23V.11Z"/><path class="a012e65b-6e25-4eb4-bda0-9bab66b26e46" d="M28.7,7.91V.12h1.8v6.1h3.42V7.91Z"/><path class="b4a6696f-8995-4778-9c28-f17abf173342" d="M37.47,6.22H40.9V7.91H35.68V.12h5v1.7H37.47V3.19h2.81V4.76H37.47Z"/><path class="e6acd901-0be8-4cd7-a566-c1107e0065d7" d="M44.82,8a3.92,3.92,0,0,1-1.68-.37A2.79,2.79,0,0,1,42,6.76l1-1.17a2.31,2.31,0,0,0,.83.49,3,3,0,0,0,1,.18,1.25,1.25,0,0,0,.7-.16.53.53,0,0,0,.25-.45.55.55,0,0,0-.3-.46,9.82,9.82,0,0,0-.92-.48l-.37-.16a5.18,5.18,0,0,1-1.48-.95,1.78,1.78,0,0,1-.47-1.27,2.27,2.27,0,0,1,.34-1.21,2.36,2.36,0,0,1,1-.83A3.3,3.3,0,0,1,44.86,0a3.54,3.54,0,0,1,1.21.21A5.77,5.77,0,0,1,47.38.9l-.81,1.27a4.88,4.88,0,0,0-.74-.33A3,3,0,0,0,45,1.7a1.27,1.27,0,0,0-.69.14.47.47,0,0,0-.27.41.45.45,0,0,0,.18.37,3.48,3.48,0,0,0,.64.31l.32.14A7,7,0,0,1,47,4.17a2,2,0,0,1,.61,1.45,2.18,2.18,0,0,1-.36,1.22,2.55,2.55,0,0,1-1,.86A3.31,3.31,0,0,1,44.82,8Z"/></g></g></g></svg>