<svg xmlns="http://www.w3.org/2000/svg" xmlns:xlink="http://www.w3.org/1999/xlink" viewBox="0 0 42.19 8"><defs><style>.ecbb9389-c211-4887-81d4-20c7a06bcce8{fill:url(#bda4614f-6d42-4cb2-8097-4147623f9d36);}.e5c3671b-98fe-4b84-8d53-0d81772bc0e4{fill:url(#ac46cefc-db6a-49f4-974b-fabd8544fca0);}.b3375506-0906-4a62-8875-cd76f6978ed9{fill:url(#afd678d3-9fbd-4e6e-99c5-bddf73018b65);}.b17a9ab1-1f46-4a0f-8fbe-eb843f7af8b3{fill:url(#f72bdb3d-96c7-4852-ac6f-c98c88e62042);}.b1aec6cd-c2f0-452b-908b-7d8a83e4aae4{fill:url(#a63fbfe5-d445-42ed-b844-a7fe189cc336);}.a003d351-5df5-4c73-a315-cfa16f2bc200{fill:url(#ff2ed6f4-c41f-4c50-9002-608ebec1decf);}</style><linearGradient id="bda4614f-6d42-4cb2-8097-4147623f9d36" x1="973.12" y1="-59.17" x2="1209.33" y2="-59.78" gradientTransform="matrix(0.16, 0, 0, -0.16, -153.8, -5.43)" gradientUnits="userSpaceOnUse"><stop offset="0" stop-color="#fedf1a"/><stop offset="0.08" stop-color="#fba658"/><stop offset="0.17" stop-color="#f6789c"/><stop offset="0.26" stop-color="#c86bd5"/><stop offset="0.36" stop-color="#9c88db"/><stop offset="0.46" stop-color="#ae9ee2"/><stop offset="0.56" stop-color="#5caee4"/><stop offset="0.65" stop-color="#19d2e3"/><stop offset="0.75" stop-color="#18ddd4"/><stop offset="0.76" stop-color="#2de4ba"/><stop offset="0.89" stop-color="#80efd5"/><stop offset="0.92" stop-color="#62fc6c"/><stop offset="1" stop-color="#62fc6c"/></linearGradient><linearGradient id="ac46cefc-db6a-49f4-974b-fabd8544fca0" x1="973.12" y1="-59.13" x2="1209.33" y2="-59.74" xlink:href="#bda4614f-6d42-4cb2-8097-4147623f9d36"/><linearGradient id="afd678d3-9fbd-4e6e-99c5-bddf73018b65" x1="973.12" y1="-59.02" x2="1209.33" y2="-59.64" xlink:href="#bda4614f-6d42-4cb2-8097-4147623f9d36"/><linearGradient id="f72bdb3d-96c7-4852-ac6f-c98c88e62042" x1="973.12" y1="-58.9" x2="1209.33" y2="-59.51" xlink:href="#bda4614f-6d42-4cb2-8097-4147623f9d36"/><linearGradient id="a63fbfe5-d445-42ed-b844-a7fe189cc336" x1="973.12" y1="-58.76" x2="1209.33" y2="-59.38" xlink:href="#bda4614f-6d42-4cb2-8097-4147623f9d36"/><linearGradient id="ff2ed6f4-c41f-4c50-9002-608ebec1decf" x1="973.12" y1="-58.57" x2="1209.33" y2="-59.18" xlink:href="#bda4614f-6d42-4cb2-8097-4147623f9d36"/></defs><g id="b6eb807a-0965-46b0-8105-b0aea296ad89" data-name="Layer 2"><g id="a1b710b4-ee4f-46aa-8923-bc646b7913b2" data-name="Layer 1"><g id="a5fa6ef4-a0ec-4021-9ca9-002bfd89bbda" data-name="1 shapes"><path class="ecbb9389-c211-4887-81d4-20c7a06bcce8" d="M2.84,8a3.89,3.89,0,0,1-1.68-.37A2.72,2.72,0,0,1,0,6.76L1,5.59a2.31,2.31,0,0,0,.83.49,3,3,0,0,0,1,.18,1.27,1.27,0,0,0,.7-.16.53.53,0,0,0,.25-.45.55.55,0,0,0-.3-.46q-.3-.18-.93-.48l-.37-.16A5.25,5.25,0,0,1,.65,3.6,1.78,1.78,0,0,1,.18,2.33,2.19,2.19,0,0,1,.52,1.12a2.36,2.36,0,0,1,1-.83A3.3,3.3,0,0,1,2.88,0,3.54,3.54,0,0,1,4.09.21,5.77,5.77,0,0,1,5.4.9L4.59,2.17a4.54,4.54,0,0,0-.75-.33A2.89,2.89,0,0,0,3,1.7a1.33,1.33,0,0,0-.7.14.48.48,0,0,0-.26.41.45.45,0,0,0,.18.37,3.48,3.48,0,0,0,.64.31l.31.14A6.63,6.63,0,0,1,5,4.17a2,2,0,0,1,.62,1.45,2.18,2.18,0,0,1-.36,1.22,2.54,2.54,0,0,1-1,.86A3.31,3.31,0,0,1,2.84,8Z"/><path class="e5c3671b-98fe-4b84-8d53-0d81772bc0e4" d="M11.8.12h1.78V7.91H11.8V4.76H8.89V7.91H7.11V.12H8.89V3.19H11.8Z"/><path class="b3375506-0906-4a62-8875-cd76f6978ed9" d="M20.16,7.91,19.74,6.8H17L16.6,7.91H14.69l3-7.79H19l3,7.79ZM17.64,5.15h1.48l-.74-2Z"/><path class="b17a9ab1-1f46-4a0f-8fbe-eb843f7af8b3" d="M26.26.12A2.27,2.27,0,0,1,27.5.48a2.73,2.73,0,0,1,.91.94,2.47,2.47,0,0,1,.33,1.23,2.19,2.19,0,0,1-.35,1.21,2.43,2.43,0,0,1-.93.87A2.6,2.6,0,0,1,26.21,5H25V7.91H23.18V.12Zm0,3.28a.78.78,0,0,0,.57-.23.82.82,0,0,0,.23-.58A.77.77,0,0,0,26.8,2a.9.9,0,0,0-.62-.23H25V3.4Z"/><path class="b1aec6cd-c2f0-452b-908b-7d8a83e4aae4" d="M32.06,6.22h3.42V7.91H30.26V.12h5.05v1.7H32.06V3.19h2.81V4.76H32.06Z"/><path class="a003d351-5df5-4c73-a315-cfa16f2bc200" d="M39.41,8a3.89,3.89,0,0,1-1.68-.37,2.72,2.72,0,0,1-1.16-.87l1-1.17a2.23,2.23,0,0,0,.83.49,3,3,0,0,0,1,.18A1.27,1.27,0,0,0,40,6.1a.52.52,0,0,0,.24-.45A.56.56,0,0,0,40,5.19q-.3-.18-.93-.48l-.37-.16a5.11,5.11,0,0,1-1.47-.95,1.74,1.74,0,0,1-.47-1.27,2.19,2.19,0,0,1,.34-1.21,2.36,2.36,0,0,1,1-.83A3.3,3.3,0,0,1,39.45,0a3.54,3.54,0,0,1,1.21.21A6,6,0,0,1,42,.9l-.81,1.27a4.54,4.54,0,0,0-.75-.33,2.91,2.91,0,0,0-.83-.14,1.31,1.31,0,0,0-.69.14.47.47,0,0,0-.27.41.45.45,0,0,0,.19.37,3.17,3.17,0,0,0,.64.31l.31.14a6.63,6.63,0,0,1,1.81,1.1,2,2,0,0,1,.62,1.45,2.11,2.11,0,0,1-.37,1.22,2.41,2.41,0,0,1-1,.86A3.24,3.24,0,0,1,39.41,8Z"/></g></g></g></svg>