<svg xmlns="http://www.w3.org/2000/svg" xmlns:xlink="http://www.w3.org/1999/xlink" viewBox="0 0 203.83 259.94"><defs><style>.e5d51221-53c8-448c-b765-1aadf524e3da{fill:url(#ffecdc8c-6be9-4e80-8285-caa1ea2d6cec);}.b6d8dfbc-10aa-4e1b-aca8-b45595781dda{fill:#231f20;}</style><linearGradient id="ffecdc8c-6be9-4e80-8285-caa1ea2d6cec" x1="182.26" y1="249.69" x2="517.97" y2="249.69" gradientTransform="matrix(0.61, 0, 0, -0.61, -110.65, 281.57)" gradientUnits="userSpaceOnUse"><stop offset="0" stop-color="#fedf1a"/><stop offset="0.15" stop-color="#fba658"/><stop offset="0.23" stop-color="#f6789c"/><stop offset="0.29" stop-color="#c86bd5"/><stop offset="0.39" stop-color="#9c88db"/><stop offset="0.49" stop-color="#ae9ee2"/><stop offset="0.56" stop-color="#5caee4"/><stop offset="0.65" stop-color="#19d2e3"/><stop offset="0.75" stop-color="#18ddd4"/><stop offset="0.84" stop-color="#2de4ba"/><stop offset="0.89" stop-color="#80efd5"/><stop offset="0.95" stop-color="#62fc6c"/><stop offset="1" stop-color="#62fc6c"/></linearGradient></defs><g id="a2bc6644-4bf4-46ee-98d3-c34e8b8233f5" data-name="Layer 2"><g id="f8a29028-370b-48a0-b1b7-2c77fc1a1ded" data-name="Layer 1"><g id="a795d276-f2de-406e-adee-45e8a24333ba" data-name="Layer 3"><path class="e5d51221-53c8-448c-b765-1aadf524e3da" d="M.57,204.34l-.22-58a5.09,5.09,0,0,1,3.44-4.89,4.89,4.89,0,0,1,5.58,1.89A22.07,22.07,0,0,0,27.59,153c12.24,0,22.22-10.32,22.17-22.95s-10-22.84-22.35-22.8A22,22,0,0,0,9.27,117a4.89,4.89,0,0,1-5.57,1.93,5.12,5.12,0,0,1-3.48-4.87L0,56.16a5,5,0,0,1,4.94-5.11l45-.16a33.71,33.71,0,0,1-5.13-17.71C44.72,14.92,59.13.06,76.84,0s32.24,14.74,32.31,33a33.44,33.44,0,0,1-5,17.74l45-.16a5,5,0,0,1,5,5.08l.17,46.22a31.58,31.58,0,0,1,17.23-5.26c17.77-.07,32.24,14.74,32.31,33s-14.34,33.11-32.05,33.18a31.37,31.37,0,0,1-17.27-5.14l.17,46.22a5,5,0,0,1-4.93,5.11l-45,.17a33.61,33.61,0,0,1,5.13,17.7c.07,18.26-14.33,33.12-32,33.18S45.61,245.2,45.54,227a33.49,33.49,0,0,1,5-17.75l-45,.16A5,5,0,0,1,.57,204.34Z"/></g><g id="a176bd99-4544-44ef-ac0a-f2e07298fa4b" data-name="Layer 4"><path class="b6d8dfbc-10aa-4e1b-aca8-b45595781dda" d="M10.31,158.13l.15,41.08L62,199a5,5,0,0,1,4.76,3.54,5.19,5.19,0,0,1-1.83,5.74A23,23,0,0,0,55.51,227c0,12.58,10.05,22.84,22.34,22.8s22.22-10.33,22.18-23a23,23,0,0,0-9.53-18.64,5.2,5.2,0,0,1-1.88-5.73,5,5,0,0,1,4.74-3.57l51.49-.19-.2-52.91a5.1,5.1,0,0,1,3.44-4.89,4.91,4.91,0,0,1,5.59,1.89,22,22,0,0,0,18.21,9.64c12.24,0,22.22-10.32,22.17-22.95S184,106.66,171.72,106.7a22.06,22.06,0,0,0-18.15,9.78,4.89,4.89,0,0,1-5.57,1.93,5.13,5.13,0,0,1-3.48-4.87l-.2-52.8-51.49.18a5,5,0,0,1-4.77-3.54,5.18,5.18,0,0,1,1.84-5.73,23,23,0,0,0,9.38-18.72c0-12.58-10-22.84-22.35-22.79s-22.22,10.32-22.17,23a23.05,23.05,0,0,0,9.52,18.65,5.18,5.18,0,0,1,1.89,5.72A5,5,0,0,1,61.43,61l-51.49.18.15,41.08A31.58,31.58,0,0,1,27.32,97C45.09,97,59.56,111.78,59.63,130S45.29,163.1,27.58,163.16A31.43,31.43,0,0,1,10.31,158.13Z"/></g></g></g></svg>